<svg width="152" height="112" viewBox="0 0 152 112" fill="none" xmlns="http://www.w3.org/2000/svg">
<circle cx="6" cy="6" r="6" fill="black"/>
<circle cx="26" cy="6" r="6" fill="black"/>
<circle cx="46" cy="6" r="6" fill="black"/>
<circle cx="66" cy="6" r="6" fill="black"/>
<circle cx="86" cy="6" r="6" fill="black"/>
<circle cx="106" cy="6" r="6" fill="black"/>
<circle cx="126" cy="6" r="6" fill="black"/>
<circle cx="146" cy="6" r="6" fill="black"/>
<circle cx="6" cy="26" r="6" fill="black"/>
<circle cx="26" cy="26" r="6" fill="black"/>
<circle cx="46" cy="26" r="6" fill="black"/>
<circle cx="66" cy="26" r="6" fill="black"/>
<circle cx="86" cy="26" r="6" fill="black"/>
<circle cx="106" cy="26" r="6" fill="black"/>
<circle cx="126" cy="26" r="6" fill="black"/>
<circle cx="146" cy="26" r="6" fill="black"/>
<circle cx="6" cy="46" r="6" fill="black"/>
<circle cx="26" cy="46" r="6" fill="black"/>
<circle cx="46" cy="46" r="6" fill="black"/>
<circle cx="66" cy="46" r="6" fill="black"/>
<circle cx="86" cy="46" r="6" fill="black"/>
<circle cx="106" cy="46" r="6" fill="black"/>
<circle cx="126" cy="46" r="6" fill="black"/>
<circle cx="146" cy="46" r="6" fill="black"/>
<circle cx="6" cy="66" r="6" fill="black"/>
<circle cx="26" cy="66" r="6" fill="black"/>
<circle cx="46" cy="66" r="6" fill="black"/>
<circle cx="66" cy="66" r="6" fill="black"/>
<circle cx="86" cy="66" r="6" fill="black"/>
<circle cx="106" cy="66" r="6" fill="black"/>
<circle cx="126" cy="66" r="6" fill="black"/>
<circle cx="146" cy="66" r="6" fill="black"/>
<circle cx="6" cy="86" r="6" fill="black"/>
<circle cx="26" cy="86" r="6" fill="black"/>
<circle cx="46" cy="86" r="6" fill="black"/>
<circle cx="66" cy="86" r="6" fill="black"/>
<circle cx="86" cy="86" r="6" fill="black"/>
<circle cx="106" cy="86" r="6" fill="black"/>
<circle cx="126" cy="86" r="6" fill="black"/>
<circle cx="146" cy="86" r="6" fill="black"/>
<circle cx="6" cy="106" r="6" fill="black"/>
<circle cx="26" cy="106" r="6" fill="black"/>
<circle cx="46" cy="106" r="6" fill="black"/>
<circle cx="66" cy="106" r="6" fill="black"/>
<circle cx="86" cy="106" r="6" fill="black"/>
<circle cx="106" cy="106" r="6" fill="black"/>
<circle cx="126" cy="106" r="6" fill="black"/>
<circle cx="146" cy="106" r="6" fill="black"/>
</svg>
