<svg width="210" height="210" viewBox="0 0 210 210" fill="none" xmlns="http://www.w3.org/2000/svg">
<path d="M104.991 0C162.878 0 209.983 47.1049 209.983 104.991C209.983 162.878 162.878 209.983 104.991 209.983V210C47.1049 210 0 162.895 0 104.991C0.000157355 47.088 47.105 0.000157363 104.991 0ZM104.991 22.1924C59.3318 22.1925 22.1748 59.3493 22.1748 105.009C22.175 150.668 59.3319 187.825 104.991 187.825C150.651 187.825 187.807 150.668 187.808 105.009C187.808 59.3492 150.668 22.1924 104.991 22.1924ZM90.332 158.763C90.7572 155.991 93.3424 154.086 96.1143 154.478L96.624 154.579C97.9843 154.851 99.1238 155.634 99.8721 156.756C100.62 157.878 100.876 159.239 100.621 160.582C100.128 162.98 98.019 164.646 95.6553 164.646L95.6377 164.63C95.3828 164.63 95.1446 164.612 94.8896 164.578L94.6182 164.545C93.2578 164.341 92.0838 163.626 91.2676 162.538C90.4683 161.45 90.128 160.106 90.332 158.763ZM114.141 155.005C116.674 154.614 118.987 156.365 119.361 158.864C119.718 161.279 118.12 163.541 115.739 164.018L115.45 164.068C115.144 164.136 114.855 164.153 114.549 164.153V164.17C113.665 164.17 112.78 163.898 112.015 163.405C110.994 162.725 110.298 161.687 110.06 160.497C109.566 158.014 111.182 155.6 113.647 155.09L114.141 155.005ZM77.4424 147.369C80.5033 147.369 83.0029 149.869 83.0029 152.93C83.0029 155.991 80.5034 158.49 77.4424 158.49C74.3815 158.49 71.8818 155.991 71.8818 152.93C71.8819 149.869 74.3815 147.369 77.4424 147.369ZM132.744 148.984C135.023 148.984 136.894 150.855 136.894 153.134C136.894 155.412 135.023 157.283 132.744 157.283C130.448 157.283 128.595 155.413 128.595 153.134C128.595 150.855 130.465 148.984 132.744 148.984ZM62.8691 146.757H62.8525C62.8555 146.757 62.8584 146.756 62.8613 146.756C62.8639 146.756 62.8665 146.757 62.8691 146.757ZM63.0566 134.394C64.672 134.496 66.168 135.227 67.2393 136.435L67.5967 136.877C68.6169 138.169 69.0766 139.767 68.8896 141.383C68.7026 142.998 67.9031 144.444 66.6279 145.447C65.5251 146.33 64.1848 146.754 62.8613 146.756C61.1805 146.754 59.5 146.057 58.3115 144.716L58.125 144.512C55.8974 141.978 56.1356 138.135 58.6523 135.907C59.8767 134.836 61.4583 134.275 63.0566 134.394ZM147.403 137.115C149.393 137.115 151.025 138.748 151.025 140.737C151.025 142.727 149.393 144.359 147.403 144.359C145.414 144.359 143.781 142.727 143.781 140.737C143.781 138.748 145.414 137.115 147.403 137.115ZM96.1143 138.339H96.0977C96.1012 138.339 96.1048 138.338 96.1084 138.338C96.1104 138.338 96.1123 138.339 96.1143 138.339ZM93.2236 128.374C94.448 127.677 95.8769 127.49 97.2373 127.864C97.3903 127.898 97.5772 127.966 97.7471 128.034L97.9512 128.119C100.706 129.191 102.066 132.251 101.012 134.955C100.214 137.043 98.2299 138.333 96.1084 138.338C95.6511 138.337 95.1768 138.271 94.7197 138.152L94.4307 138.067C93.0873 137.693 91.9482 136.808 91.251 135.584C90.5539 134.36 90.3672 132.932 90.7412 131.571C91.1153 130.211 91.9992 129.071 93.2236 128.374ZM113.154 128.816C114.311 128.51 115.484 128.663 116.504 129.241C117.524 129.819 118.239 130.772 118.545 131.895C119.14 134.054 117.983 136.315 115.875 137.114L115.62 137.217C115.11 137.404 114.582 137.506 114.072 137.506H114.038C113.426 137.506 112.814 137.369 112.235 137.114C111.164 136.638 110.348 135.754 109.939 134.666C109.089 132.404 110.229 129.871 112.49 129.021L113.154 128.816ZM50.7441 117.66C52.3767 117.014 54.1794 117.048 55.7949 117.763C57.4103 118.477 58.6516 119.752 59.2979 121.401L59.502 121.963C60.0631 123.663 59.9444 125.449 59.1621 127.014C58.3799 128.578 57.019 129.751 55.3525 130.312C54.6725 130.534 53.9584 130.652 53.2783 130.652L53.2441 130.67C50.6083 130.67 48.1424 129.071 47.1221 126.486L47.0205 126.197C45.6941 122.83 47.3771 118.987 50.7441 117.66ZM77.375 117.286C78.6672 116.249 80.2654 115.79 81.9316 115.977C83.581 116.164 85.0437 116.98 86.0811 118.272C86.217 118.442 86.3365 118.613 86.4385 118.766L86.5742 118.97C88.4617 121.894 87.6289 125.72 84.7725 127.574C83.7351 128.237 82.5782 128.561 81.4219 128.561H81.4053C79.5857 128.561 77.7996 127.762 76.5752 126.248L76.3887 125.993C75.3513 124.701 74.892 123.085 75.0791 121.436C75.2662 119.786 76.0826 118.323 77.375 117.286ZM157.079 120.942C158.797 120.942 160.208 122.354 160.208 124.071C160.208 125.789 158.797 127.2 157.079 127.2C155.345 127.2 153.95 125.789 153.95 124.071C153.95 122.354 155.362 120.942 157.079 120.942ZM128.918 118.817C130.89 118.817 132.489 120.415 132.489 122.388C132.489 124.36 130.891 125.959 128.918 125.959C126.945 125.959 125.347 124.36 125.347 122.388C125.347 120.415 126.945 118.817 128.918 118.817ZM49.7236 97.917C53.5668 97.815 56.9002 100.91 56.9854 104.821V105.298C56.9343 107.236 56.1518 108.988 54.7744 110.297C53.4481 111.555 51.731 112.253 49.8945 112.253L49.9111 112.235C49.9111 112.235 49.7917 112.235 49.7236 112.235C45.9488 112.133 42.9226 109.107 42.8203 105.332C42.7183 101.285 45.8126 98.0192 49.7236 97.917ZM134.581 97.8154C138.237 98.0027 141.11 100.91 141.28 104.583V104.855C141.365 106.675 140.702 108.494 139.427 109.889C138.151 111.283 136.4 112.1 134.513 112.185H134.206L134.189 112.202C132.421 112.202 130.721 111.538 129.411 110.331C128.017 109.056 127.2 107.304 127.115 105.399V104.635C127.217 102.645 128.05 100.893 129.462 99.6348C130.873 98.3594 132.676 97.7474 134.581 97.8154ZM75.5039 97.7979C77.3744 97.7298 79.2111 98.3761 80.6055 99.6514C81.9998 100.927 82.8163 102.679 82.9014 104.583V105.349C82.7993 107.338 81.9661 109.09 80.5547 110.349C79.2453 111.539 77.5786 112.168 75.8271 112.168H75.4355C71.7796 111.981 68.9054 109.072 68.7354 105.399V105.128C68.6503 103.308 69.3144 101.488 70.5898 100.094C71.8652 98.6995 73.6165 97.8829 75.5039 97.7979ZM160.276 97.7471C164.052 97.8491 167.079 100.876 167.181 104.651C167.283 108.699 164.188 111.963 160.276 112.065H160.089V112.083C156.263 112.083 153.1 109.022 152.998 105.179V104.702C153.049 102.764 153.832 101.012 155.209 99.7031C156.586 98.3937 158.321 97.7811 160.276 97.7471ZM125.245 82.4258C127.915 80.7083 131.434 81.2863 133.424 83.752L133.611 84.0068C134.649 85.2992 135.108 86.9149 134.921 88.5645C134.734 90.2139 133.917 91.6766 132.625 92.7139C131.52 93.5981 130.176 94.0742 128.765 94.0742L128.782 94.0566C128.544 94.0566 128.323 94.0574 128.085 94.0234C126.436 93.8364 124.973 93.0198 123.936 91.7275C123.8 91.5575 123.68 91.3874 123.578 91.2344L123.442 91.0303C121.555 88.1053 122.388 84.2794 125.245 82.4258ZM154.665 79.6875C157.981 78.5824 161.585 80.2656 162.878 83.5303L162.98 83.8193C164.307 87.1864 162.623 91.03 159.256 92.3564C158.474 92.6624 157.658 92.8154 156.842 92.8154L156.858 92.7988C155.957 92.7988 155.073 92.6114 154.223 92.2373C152.607 91.5231 151.366 90.2479 150.72 88.5986L150.516 88.0371C149.954 86.3366 150.073 84.5508 150.855 82.9863C151.638 81.4219 152.999 80.2487 154.665 79.6875ZM81.082 84.041C83.0546 84.0411 84.6533 85.6397 84.6533 87.6123C84.6531 89.5847 83.0545 91.1825 81.082 91.1826C79.1095 91.1826 77.511 89.5848 77.5107 87.6123C77.5107 85.6397 79.1094 84.041 81.082 84.041ZM52.9209 82.7998C54.6384 82.7998 56.0498 84.2112 56.0498 85.9287C56.0497 87.6461 54.6384 89.0576 52.9209 89.0576C51.2035 89.0576 49.7921 87.6461 49.792 85.9287C49.792 84.2112 51.2034 82.7999 52.9209 82.7998ZM108.987 75.0449C109.974 72.5111 112.695 71.1334 115.297 71.8477L115.586 71.9326C116.929 72.3068 118.068 73.1917 118.766 74.416C119.463 75.6403 119.649 77.0684 119.275 78.4287C118.901 79.7891 118.017 80.9288 116.793 81.626C115.977 82.0851 115.092 82.3232 114.174 82.3232C113.698 82.3232 113.239 82.2547 112.763 82.1357C112.61 82.1017 112.423 82.0338 112.253 81.9658L112.049 81.8809C109.294 80.8095 107.933 77.7488 108.987 75.0449ZM95.6729 81.3535H95.6562C95.6589 81.3535 95.6615 81.3525 95.6641 81.3525C95.667 81.3525 95.6699 81.3535 95.6729 81.3535ZM94.3809 72.7998C95.4861 72.3918 96.6768 72.4262 97.748 72.9023C98.819 73.3784 99.6348 74.2626 100.043 75.3506C100.893 77.6123 99.7539 80.1468 97.4922 80.9971L96.8291 81.2012C96.4408 81.3025 96.0524 81.3518 95.6641 81.3525C94.9021 81.351 94.1737 81.148 93.4961 80.7754C92.476 80.1972 91.7621 79.2452 91.4561 78.123C90.8609 75.9634 92.0173 73.7016 94.126 72.9023L94.3809 72.7998ZM143.355 64.5693C145.889 62.563 149.545 62.8863 151.688 65.3008L151.875 65.5049C154.103 68.0387 153.864 71.8817 151.348 74.1094C150.225 75.0957 148.814 75.6396 147.317 75.6396V75.623H146.927C145.311 75.521 143.814 74.7894 142.743 73.582L142.386 73.1406C141.365 71.8482 140.907 70.2493 141.094 68.6338C141.281 67.0183 142.08 65.5726 143.355 64.5693ZM62.5967 65.6406C64.5862 65.6406 66.2185 67.2733 66.2188 69.2627C66.2188 71.2523 64.5863 72.8857 62.5967 72.8857C60.6071 72.8857 58.9746 71.2523 58.9746 69.2627C58.9749 67.2733 60.6072 65.6407 62.5967 65.6406ZM132.557 51.5098C135.618 51.5098 138.117 54.0093 138.117 57.0703C138.117 60.1312 135.618 62.6309 132.557 62.6309C129.479 62.6307 126.996 60.1312 126.996 57.0703C126.996 54.0094 129.496 51.5099 132.557 51.5098ZM77.2383 52.7344C79.5168 52.7344 81.3875 54.6043 81.3877 56.8828C81.3877 59.1615 79.517 61.0322 77.2383 61.0322C74.9426 61.0322 73.0889 59.1615 73.0889 56.8828C73.0891 54.6043 74.9597 52.7344 77.2383 52.7344ZM109.396 49.418C109.94 46.7822 112.457 45.0133 115.109 45.4043L115.382 45.4385C116.742 45.6426 117.915 46.357 118.731 47.4453C119.531 48.5337 119.871 49.8773 119.667 51.2207C119.293 53.7372 117.116 55.5565 114.634 55.5566L114.65 55.5732C114.395 55.5732 114.157 55.5565 113.902 55.5225L113.392 55.4209C112.031 55.1488 110.892 54.3664 110.144 53.2441C109.395 52.1219 109.141 50.7613 109.396 49.418ZM94.5332 45.9316C95.7236 45.6936 96.9484 45.9321 97.9688 46.6123C98.9888 47.2925 99.6857 48.3294 99.9238 49.5195C100.417 52.0023 98.8017 54.4176 96.3359 54.9277L95.8428 55.0127C95.6217 55.0467 95.3832 55.0635 95.1621 55.0635V55.0469C92.9177 55.0467 90.9623 53.4141 90.6221 51.1357C90.265 48.721 91.8634 46.4586 94.2441 45.9824L94.5332 45.9316Z" fill="url(#paint0_linear_438_638)"/>
<defs>
<linearGradient id="paint0_linear_438_638" x1="218" y1="100" x2="-8" y2="101" gradientUnits="userSpaceOnUse">
<stop offset="0.245192" stop-color="#D5FC9A"/>
<stop offset="1" stop-color="#00C3C3"/>
</linearGradient>
</defs>
</svg>
