<svg width="240" height="240" viewBox="0 0 240 240" fill="none" xmlns="http://www.w3.org/2000/svg">
<path d="M104.241 208.311C105.73 208.311 106.935 209.526 106.936 211.026C106.936 212.527 105.73 213.742 104.241 213.742C102.752 213.742 101.546 212.527 101.546 211.026C101.546 209.526 102.752 208.311 104.241 208.311ZM88.8711 203.755C90.5906 203.755 91.9736 205.149 91.9736 206.882C91.9734 208.615 90.5905 210.008 88.8711 210.008C87.1519 210.008 85.7698 208.615 85.7695 206.882C85.7695 205.149 87.1518 203.755 88.8711 203.755ZM74.4238 196.501C76.4091 196.501 78.0398 198.145 78.04 200.146C78.04 202.147 76.4092 203.791 74.4238 203.791C72.4384 203.791 70.8076 202.147 70.8076 200.146C70.8078 198.145 72.4385 196.501 74.4238 196.501ZM32.6055 191.248C34.1832 191.248 35.4775 192.552 35.4775 194.143C35.4775 195.733 34.1832 197.037 32.6055 197.037C31.028 197.037 29.7344 195.733 29.7344 194.143C29.7344 192.553 31.028 191.248 32.6055 191.248ZM61.4658 186.728C63.7348 186.728 65.5781 188.586 65.5781 190.873C65.578 193.16 63.7347 195.018 61.4658 195.018C59.1969 195.018 57.3537 193.16 57.3535 190.873C57.3535 188.586 59.1968 186.728 61.4658 186.728ZM120.78 187.46C122.783 187.46 124.45 189.122 124.45 191.159C124.45 193.196 122.801 194.857 120.78 194.857C118.76 194.857 117.129 193.196 117.129 191.159C117.129 189.122 118.777 187.46 120.78 187.46ZM102.717 186.174C103.603 185.584 104.667 185.352 105.713 185.566L106.103 185.656C108.23 186.174 109.559 188.336 109.045 190.479C108.619 192.32 106.989 193.571 105.163 193.571C104.915 193.571 104.667 193.553 104.419 193.499L104.17 193.445C103.124 193.249 102.221 192.641 101.636 191.748C101.051 190.855 100.82 189.783 101.032 188.729C101.227 187.675 101.831 186.763 102.717 186.174ZM86.0352 182.529C87.0102 180.332 89.598 179.35 91.7783 180.314L92.168 180.511C93.1784 181.011 93.9588 181.922 94.3311 183.012C94.7033 184.119 94.6145 185.298 94.1006 186.353C93.3384 187.889 91.8141 188.783 90.2188 188.783H90.2002C89.6154 188.783 89.0124 188.657 88.4453 188.407L88.2334 188.318C86.0352 187.318 85.0602 184.727 86.0352 182.529ZM23.2812 177.455C25.3198 177.455 26.9686 179.116 26.9688 181.171C26.9688 183.226 25.3199 184.888 23.2812 184.888C21.2428 184.887 19.5947 183.225 19.5947 181.171C19.5949 179.117 21.2429 177.455 23.2812 177.455ZM47.248 176.15C49.0561 174.542 51.8214 174.703 53.4346 176.525L53.7363 176.9C55.2254 178.776 54.9241 181.564 53.0273 183.083C52.2297 183.726 51.2541 184.048 50.2969 184.048V184.029C49.0916 184.029 47.8859 183.529 47.0352 182.564L46.876 182.386C46.0961 181.51 45.7064 180.367 45.7773 179.188C45.8483 178.008 46.3618 176.936 47.248 176.15ZM76.6748 171.148C79.316 171.148 81.4607 173.31 81.4609 175.972C81.4609 178.634 79.3161 180.796 76.6748 180.796C74.0335 180.796 71.8887 178.634 71.8887 175.972C71.8889 173.31 74.0337 171.148 76.6748 171.148ZM107.36 167.021C107.715 164.609 109.949 162.947 112.342 163.305L112.785 163.394C113.955 163.626 114.93 164.305 115.586 165.288C116.242 166.271 116.455 167.45 116.225 168.611C115.799 170.684 113.991 172.131 111.935 172.131C111.722 172.131 111.509 172.131 111.296 172.077L111.065 172.041C109.896 171.862 108.885 171.255 108.176 170.309C107.484 169.362 107.201 168.2 107.36 167.021ZM127.906 163.787C130.087 163.448 132.09 164.966 132.409 167.128C132.711 169.218 131.345 171.183 129.289 171.612L129.041 171.666C128.775 171.72 128.527 171.737 128.261 171.737H128.243C127.481 171.737 126.718 171.505 126.062 171.076C125.176 170.487 124.592 169.594 124.379 168.54C123.953 166.378 125.336 164.287 127.48 163.858L127.906 163.787ZM38.5273 162.197C39.6263 161.518 40.9026 161.322 42.1611 161.607C43.4197 161.911 44.466 162.679 45.1396 163.787L45.3701 164.216C45.9728 165.341 46.1143 166.646 45.7598 167.896C45.4053 169.129 44.5727 170.166 43.4561 170.791C42.7293 171.184 41.9489 171.381 41.1689 171.381V171.345C39.5558 171.345 37.9783 170.523 37.0742 169.058L36.9502 168.861C36.2766 167.754 36.0639 166.449 36.3652 165.198C36.6667 163.93 37.4285 162.876 38.5273 162.197ZM15.6768 162.715C18.0344 162.715 19.9492 164.645 19.9492 167.021C19.949 169.397 18.0342 171.327 15.6768 171.327C13.3192 171.327 11.4045 169.398 11.4043 167.021C11.4043 164.645 13.3191 162.715 15.6768 162.715ZM62.1396 160.75C64.2669 158.946 67.4576 159.213 69.248 161.357L69.5137 161.696C70.3468 162.786 70.7017 164.127 70.5244 165.484C70.3471 166.824 69.6553 168.021 68.5918 168.843C67.6701 169.557 66.6066 169.897 65.5254 169.897V169.915C64.0895 169.915 62.6714 169.29 61.6787 168.11L61.5186 167.914C60.6678 166.896 60.2422 165.574 60.3662 164.216C60.4903 162.858 61.1115 161.625 62.1396 160.75ZM96.2812 157.158C98.9224 157.158 101.067 159.32 101.067 161.982C101.067 164.644 98.9224 166.806 96.2812 166.807C93.64 166.807 91.4952 164.645 91.4951 161.982C91.4951 159.32 93.6399 157.158 96.2812 157.158ZM143.914 158.534C145.899 158.534 147.495 160.16 147.495 162.144C147.495 164.127 145.882 165.752 143.914 165.752C141.946 165.752 140.333 164.127 140.333 162.144C140.333 160.16 141.929 158.534 143.914 158.534ZM34.4141 157.266H34.3789C34.3864 157.266 34.3939 157.265 34.4014 157.265C34.4055 157.265 34.4099 157.266 34.4141 157.266ZM32.3926 146.85C33.7044 146.331 35.1231 146.349 36.3994 146.921C37.6757 147.475 38.6685 148.511 39.1826 149.833L39.3418 150.298C40.2636 153.085 38.7749 156.069 36.0273 156.998C35.4854 157.174 34.9433 157.262 34.4014 157.265C32.3143 157.26 30.3529 155.993 29.5391 153.925L29.4502 153.729C28.3866 150.995 29.7161 147.922 32.3926 146.85ZM8.92285 147.278C11.4399 146.439 14.1697 147.832 15.0029 150.369L15.1621 150.959C15.4635 152.21 15.2684 153.514 14.5947 154.604C13.9211 155.711 12.8756 156.498 11.6348 156.802C11.2625 156.891 10.8723 156.944 10.5 156.944C8.47919 156.944 6.60037 155.64 5.92676 153.639L5.83789 153.389C5.44794 152.174 5.5371 150.869 6.12207 149.708C6.70709 148.547 7.69982 147.689 8.92285 147.278ZM57.0518 156.837H57.0342C57.0374 156.837 57.0407 156.836 57.0439 156.836C57.0466 156.836 57.0492 156.837 57.0518 156.837ZM54.4814 146.331C57.1227 144.973 60.385 146.01 61.75 148.689L61.9443 149.101C62.5647 150.44 62.6185 151.923 62.1045 153.281C61.6081 154.639 60.597 155.729 59.2852 156.337C58.5616 156.675 57.8028 156.835 57.0439 156.836C55.0792 156.833 53.204 155.745 52.248 153.871L52.1416 153.675C51.4857 152.371 51.3616 150.905 51.8047 149.512C52.2479 148.118 53.1874 146.992 54.4814 146.331ZM83.8721 145.867C85.2724 145.957 86.5489 146.581 87.4707 147.653L87.79 148.047C88.6762 149.172 89.0666 150.548 88.9072 151.959C88.7477 153.37 88.0561 154.622 86.957 155.497C85.9998 156.265 84.8474 156.641 83.7129 156.641L83.7305 156.623C82.2769 156.623 80.8408 156.015 79.7949 154.836L79.6357 154.657C77.7212 152.46 77.9165 149.119 80.0791 147.189C81.1249 146.26 82.5072 145.76 83.8721 145.867ZM156.535 148.243C158.255 148.243 159.655 149.655 159.655 151.388C159.655 153.121 158.255 154.532 156.535 154.532C154.816 154.532 153.415 153.121 153.415 151.388C153.415 149.655 154.816 148.243 156.535 148.243ZM109.878 140.686C110.942 140.078 112.165 139.917 113.335 140.257C113.459 140.293 113.637 140.346 113.778 140.399L113.955 140.472C116.33 141.401 117.501 144.063 116.597 146.403C115.905 148.208 114.204 149.333 112.36 149.333V149.315C111.97 149.315 111.562 149.261 111.154 149.154L110.906 149.083C109.736 148.761 108.761 147.993 108.158 146.939C107.555 145.867 107.397 144.634 107.733 143.455C108.052 142.276 108.814 141.293 109.878 140.686ZM127.801 148.583H127.765C127.77 148.583 127.776 148.582 127.781 148.582C127.788 148.582 127.794 148.583 127.801 148.583ZM127.021 141.025C128.013 140.757 129.024 140.9 129.893 141.4C130.761 141.901 131.382 142.723 131.647 143.705C132.162 145.581 131.169 147.546 129.343 148.243L129.112 148.333C128.674 148.492 128.236 148.58 127.781 148.582C127.256 148.579 126.731 148.473 126.24 148.243C125.319 147.832 124.609 147.064 124.255 146.117C123.528 144.152 124.503 141.955 126.453 141.204L127.021 141.025ZM73.2725 131.359C74.6905 130.806 76.2326 130.841 77.6152 131.448C78.9979 132.056 80.0794 133.182 80.6289 134.611L80.8057 135.094C81.3019 136.576 81.1783 138.113 80.5049 139.488C79.8313 140.846 78.6614 141.865 77.2256 142.348C76.6406 142.544 76.0373 142.633 75.4346 142.633V142.651C73.1657 142.651 71.0388 141.257 70.1523 139.024L70.0635 138.773C68.9292 135.843 70.3654 132.521 73.2725 131.359ZM29.1494 130.645C30.6385 130.341 32.1457 130.645 33.4043 131.484C34.6627 132.324 35.5307 133.629 35.832 135.111L35.9209 135.629C36.1513 137.148 35.7615 138.667 34.8574 139.882C33.9533 141.097 32.6237 141.901 31.1348 142.133C30.8512 142.169 30.5853 142.187 30.3018 142.187V142.204C27.6428 142.204 25.2849 140.311 24.7529 137.631L24.7002 137.398C24.0798 134.29 26.0649 131.27 29.1494 130.645ZM50.333 130.52C53.4175 129.733 56.5374 131.628 57.3174 134.736L57.4238 135.2C57.7429 136.737 57.424 138.274 56.5908 139.578C55.7399 140.864 54.4452 141.758 52.9385 142.062C52.5486 142.151 52.1584 142.187 51.7686 142.187V142.168C49.1983 142.168 46.859 140.417 46.2031 137.791L46.1494 137.541C45.7772 136.058 46.008 134.504 46.8057 133.164C47.6034 131.842 48.844 130.895 50.333 130.52ZM7.20312 141.918H7.18555C7.1875 141.918 7.18945 141.917 7.19141 141.917C7.19531 141.917 7.19922 141.918 7.20312 141.918ZM6.20996 130.77C7.64585 130.519 9.10038 130.823 10.2881 131.663C11.4932 132.503 12.2908 133.771 12.5391 135.218C12.5568 135.361 12.5918 135.522 12.5918 135.665V135.879C12.9109 138.898 10.7127 141.597 7.7168 141.9C7.54167 141.9 7.36654 141.917 7.19141 141.917C4.60804 141.911 2.30994 140.02 1.83203 137.397L1.79688 137.166C1.26509 134.165 3.24982 131.306 6.20996 130.77ZM96.2109 131.038C97.3099 130.145 98.7099 129.734 100.128 129.895C101.546 130.055 102.805 130.752 103.709 131.877C103.815 132.02 103.922 132.164 104.028 132.307L104.135 132.485C105.748 135.022 105.038 138.345 102.574 139.953C101.688 140.543 100.678 140.81 99.6855 140.811V140.828C98.1256 140.828 96.583 140.132 95.5371 138.81L95.3779 138.596C94.4916 137.47 94.0836 136.076 94.2432 134.646C94.4028 133.217 95.1119 131.931 96.2109 131.038ZM164.867 134.2C166.356 134.2 167.562 135.415 167.562 136.916C167.562 138.417 166.356 139.632 164.867 139.632C163.378 139.632 162.173 138.417 162.173 136.916C162.173 135.415 163.378 134.2 164.867 134.2ZM140.599 132.378C142.283 132.378 143.665 133.771 143.665 135.469C143.665 137.166 142.283 138.56 140.599 138.56C138.897 138.56 137.532 137.166 137.532 135.469C137.532 133.771 138.915 132.378 140.599 132.378ZM28.7598 114.225C30.4082 114.225 31.9325 114.779 33.1201 115.923C34.3077 117.048 34.9811 118.585 35.0166 120.229V120.692C34.928 124.016 32.1984 126.66 28.9189 126.66V126.643C28.9189 126.643 28.8131 126.643 28.7598 126.643C25.5158 126.553 22.91 123.927 22.8213 120.657C22.7858 118.888 23.3705 117.334 24.4873 116.137C25.6041 114.94 27.1289 114.26 28.7598 114.225ZM49.8721 114.225C51.5561 114.225 53.0457 114.797 54.2334 115.94C55.4032 117.084 56.0768 118.603 56.1123 120.246V120.621C56.0769 122.283 55.4033 123.82 54.2334 124.945C53.0989 126.053 51.5914 126.643 50.0137 126.643V126.66H49.8721C46.5927 126.589 43.9873 123.945 43.8984 120.64C43.8275 117.12 46.504 114.296 49.8721 114.225ZM72.4033 114.225C75.7181 114.135 78.5723 116.833 78.6611 120.21V120.621C78.6079 122.301 77.9337 123.819 76.7637 124.963C75.6292 126.053 74.1401 126.66 72.5625 126.66H72.4033C69.1594 126.571 66.5536 123.945 66.4648 120.657C66.3762 117.137 69.0529 114.314 72.4033 114.225ZM5.85645 114.189C7.52263 114.118 9.04675 114.708 10.2344 115.815C11.4398 116.923 12.1314 118.46 12.1846 120.104V120.692C12.0428 124.015 9.34852 126.625 6.08691 126.625L6.10449 126.606C6.10449 126.606 5.94515 126.606 5.85645 126.606C2.70112 126.481 0.13007 123.891 0.00585938 120.711C-0.135957 117.191 2.50604 114.332 5.85645 114.189ZM145.492 114.153C148.63 114.314 151.129 116.833 151.271 120.031V120.264C151.342 121.854 150.775 123.426 149.676 124.623C148.577 125.838 147.069 126.535 145.438 126.606H145.173L145.155 126.624C143.631 126.624 142.177 126.053 141.043 124.999C139.838 123.891 139.146 122.372 139.075 120.729V120.067C139.164 118.334 139.873 116.833 141.096 115.726C142.301 114.618 143.861 114.082 145.492 114.153ZM94.5791 114.136C96.1921 114.064 97.7702 114.636 98.9756 115.743C100.181 116.851 100.872 118.37 100.943 120.014V120.675C100.855 122.408 100.146 123.909 98.9229 125.017C97.7884 126.035 96.3524 126.606 94.8457 126.606L94.8633 126.589H94.5264C91.3888 126.428 88.8891 123.909 88.7471 120.711V120.479C88.6762 118.888 89.2438 117.316 90.3428 116.119C91.4417 114.904 92.9484 114.207 94.5791 114.136ZM234.145 114.153C237.3 114.278 239.871 116.87 239.995 120.05C240.137 123.569 237.495 126.427 234.145 126.57H233.896C232.355 126.57 230.901 125.999 229.749 124.945C228.544 123.838 227.852 122.301 227.799 120.657V120.067C227.941 116.655 230.812 113.993 234.145 114.153ZM211.259 114.1C214.503 114.189 217.109 116.815 217.197 120.085C217.233 121.854 216.648 123.408 215.531 124.605C214.414 125.802 212.89 126.481 211.259 126.517H211.099V126.535C209.521 126.535 208.05 125.946 206.897 124.838C205.71 123.712 205.036 122.175 205.001 120.531V120.067C205.09 116.744 207.819 114.1 211.099 114.1H211.259ZM167.614 114.064C170.858 114.154 173.464 116.78 173.553 120.067C173.641 123.587 170.965 126.41 167.614 126.499H167.455V126.518C164.158 126.518 161.427 123.855 161.356 120.514V120.103C161.41 118.423 162.084 116.905 163.254 115.762C164.442 114.636 165.93 114.1 167.614 114.064ZM190.128 114.082C193.407 114.154 196.013 116.798 196.102 120.104C196.172 123.623 193.496 126.446 190.128 126.518H189.986L190.004 126.499C188.426 126.499 186.92 125.892 185.785 124.784C184.615 123.641 183.941 122.122 183.905 120.479V120.104C183.941 118.442 184.615 116.905 185.785 115.779C186.955 114.654 188.426 114.046 190.128 114.082ZM137.443 100.789C139.748 99.2885 142.779 99.7889 144.48 101.933L144.641 102.147C145.527 103.273 145.935 104.666 145.775 106.096C145.616 107.525 144.907 108.812 143.808 109.705C142.85 110.473 141.698 110.884 140.492 110.884C140.297 110.884 140.085 110.884 139.89 110.849C138.471 110.688 137.213 109.991 136.309 108.865C136.202 108.722 136.096 108.579 135.989 108.437L135.884 108.258C134.271 105.721 134.979 102.397 137.443 100.789ZM188.284 110.419H188.267C188.269 110.419 188.271 110.418 188.273 110.418C188.277 110.418 188.281 110.419 188.284 110.419ZM187.079 98.7168C190.093 98.0915 193.053 99.9672 193.798 102.969L193.851 103.219C194.223 104.702 193.993 106.257 193.195 107.597C192.398 108.919 191.156 109.865 189.667 110.24C189.208 110.365 188.732 110.417 188.273 110.418C185.707 110.413 183.355 108.665 182.7 106.042L182.594 105.577C182.275 104.041 182.595 102.504 183.428 101.2C184.279 99.9138 185.572 99.0205 187.079 98.7168ZM209.752 110.205H209.734C209.737 110.205 209.739 110.204 209.741 110.204C209.745 110.204 209.748 110.205 209.752 110.205ZM208.883 98.5918C211.861 98.1451 214.662 100.146 215.265 103.111L215.318 103.344C215.939 106.453 213.953 109.472 210.868 110.098C210.498 110.169 210.111 110.204 209.741 110.204C208.646 110.202 207.568 109.881 206.614 109.24C205.356 108.401 204.487 107.096 204.186 105.613L204.097 105.095C203.866 103.576 204.256 102.058 205.16 100.843C206.064 99.628 207.394 98.8242 208.883 98.5918ZM232.301 98.8418C235.084 98.5559 237.69 100.539 238.204 103.344L238.239 103.576C238.771 106.578 236.786 109.437 233.825 109.973C233.506 110.026 233.17 110.062 232.851 110.062H232.833C231.734 110.062 230.652 109.722 229.73 109.079C228.525 108.239 227.728 106.971 227.479 105.523C227.462 105.381 227.426 105.22 227.426 105.077V104.863C227.107 101.844 229.305 99.1457 232.301 98.8418ZM162.794 98.3955C165.648 97.431 168.749 98.8958 169.866 101.736L169.955 101.986C171.09 104.916 169.654 108.24 166.747 109.401C166.074 109.669 165.364 109.794 164.673 109.794V109.776C163.893 109.776 163.13 109.616 162.403 109.294C161.021 108.686 159.939 107.561 159.39 106.132L159.213 105.649C158.717 104.166 158.84 102.63 159.514 101.254C160.187 99.896 161.358 98.8779 162.794 98.3955ZM99.4199 102.201C101.104 102.201 102.486 103.595 102.486 105.292C102.486 106.989 101.104 108.383 99.4199 108.383C97.7182 108.383 96.3527 106.989 96.3525 105.292C96.3525 103.595 97.7359 102.201 99.4199 102.201ZM75.1504 101.111C76.6395 101.111 77.8447 102.326 77.8447 103.827C77.8445 105.328 76.6393 106.542 75.1504 106.542C73.6616 106.542 72.4563 105.328 72.4561 103.827C72.4561 102.326 73.6615 101.111 75.1504 101.111ZM123.438 94.375C124.289 92.1776 126.63 90.9803 128.881 91.6055L129.129 91.6777C130.299 91.9993 131.274 92.7672 131.877 93.8213C132.48 94.8933 132.64 96.1265 132.303 97.3057C131.984 98.4848 131.221 99.4678 130.157 100.075C129.466 100.468 128.686 100.683 127.906 100.683C127.499 100.683 127.09 100.629 126.7 100.521C126.576 100.486 126.399 100.432 126.258 100.379L126.08 100.307C123.705 99.3775 122.534 96.7155 123.438 94.375ZM110.871 92.4092C111.811 92.0519 112.839 92.0881 113.761 92.499C114.682 92.91 115.392 93.6782 115.746 94.625C116.473 96.5903 115.498 98.7876 113.548 99.5381L112.98 99.7168C112.644 99.8061 112.307 99.8604 111.97 99.8604V99.8418C111.314 99.8417 110.676 99.6633 110.091 99.3418C109.222 98.8415 108.602 98.0197 108.336 97.0371C107.822 95.1611 108.815 93.1958 110.641 92.499L110.871 92.4092ZM183.072 95H183.055C183.058 95 183.061 94.999 183.063 94.999C183.066 94.999 183.069 95 183.072 95ZM180.715 84.3877C183.338 83.1728 186.441 84.262 187.753 86.8525L187.859 87.0498C188.515 88.3539 188.638 89.8186 188.195 91.2119C187.752 92.6055 186.813 93.7315 185.519 94.3926C184.741 94.802 183.894 94.9977 183.063 94.999C181.099 94.9957 179.207 93.9073 178.251 92.0342L178.056 91.623C177.435 90.2831 177.382 88.8001 177.896 87.4424C178.393 86.0847 179.403 84.9952 180.715 84.3877ZM153.044 85.2451C155.224 83.4943 158.38 83.7804 160.224 85.8887L160.383 86.0674C162.297 88.265 162.102 91.6056 159.939 93.5352C158.964 94.3928 157.759 94.8574 156.482 94.8574L156.465 94.875H156.128C154.728 94.7856 153.451 94.1608 152.529 93.0889L152.211 92.6953C151.325 91.5698 150.934 90.1945 151.094 88.7832C151.253 87.3717 151.945 86.1206 153.044 85.2451ZM203.955 83.7441C206.579 82.8508 209.45 84.2091 210.479 86.8174L210.567 87.0146C211.631 89.7481 210.301 92.8205 207.625 93.8926C207.005 94.1427 206.348 94.2686 205.692 94.2686H205.675C204.966 94.2685 204.257 94.125 203.583 93.8213C202.307 93.2674 201.314 92.2313 200.8 90.9092L200.641 90.4443C199.719 87.6572 201.207 84.6732 203.955 83.7441ZM228.4 83.959C230.793 83.3694 233.311 84.7626 234.108 87.1387L234.197 87.3887C234.587 88.6035 234.499 89.9081 233.914 91.0693C233.329 92.2306 232.336 93.089 231.113 93.5C230.617 93.6608 230.12 93.75 229.624 93.75L229.606 93.7314C227.586 93.7314 225.688 92.4274 225.032 90.3906L224.873 89.8008C224.572 88.5502 224.767 87.246 225.44 86.1562C226.114 85.0487 227.16 84.2627 228.4 83.959ZM83.4824 86.21C85.2019 86.21 86.6024 87.6215 86.6025 89.3545C86.6025 91.0876 85.2019 92.499 83.4824 92.499C81.763 92.499 80.3623 91.0875 80.3623 89.3545C80.3624 87.6216 81.763 86.21 83.4824 86.21ZM143.736 73.9531C146.378 73.9531 148.523 76.1153 148.523 78.7773C148.523 81.4395 146.378 83.6016 143.736 83.6016C141.095 83.6014 138.95 81.4394 138.95 78.7773C138.95 76.1154 141.095 73.9533 143.736 73.9531ZM96.1045 74.9902C98.0721 74.9902 99.6854 76.6155 99.6855 78.5986C99.6855 80.5818 98.0899 82.208 96.1045 82.208C94.1369 82.2079 92.5234 80.5818 92.5234 78.5986C92.5236 76.6156 94.137 74.9904 96.1045 74.9902ZM171.427 71.8809C173.554 70.2196 176.603 70.5587 178.34 72.6309L178.499 72.8281C179.35 73.8465 179.775 75.1685 179.651 76.5264C179.527 77.8842 178.907 79.1168 177.879 79.9922C176.939 80.7962 175.787 81.1895 174.635 81.1895V81.1719C173.199 81.1718 171.763 80.5641 170.771 79.3672L170.505 79.0273C169.672 77.9376 169.317 76.598 169.494 75.2402C169.671 73.9002 170.363 72.7027 171.427 71.8809ZM196.563 69.9873C198.797 68.7545 201.598 69.5049 202.963 71.6846L203.087 71.8809C203.76 72.9886 203.973 74.2933 203.672 75.5439C203.37 76.8123 202.608 77.8661 201.509 78.5449C200.747 79.0272 199.878 79.2597 198.992 79.2598L198.974 79.2959C198.602 79.2959 198.229 79.2423 197.857 79.1709C196.599 78.8672 195.553 78.098 194.879 76.9902L194.648 76.5615C194.046 75.4361 193.904 74.1322 194.259 72.8818C194.613 71.649 195.447 70.6126 196.563 69.9873ZM224.342 69.415C226.699 69.4152 228.613 71.3455 228.613 73.7217C228.613 76.0976 226.699 78.0272 224.342 78.0273C221.984 78.0273 220.07 76.0977 220.069 73.7217C220.069 71.3454 221.984 69.415 224.342 69.415ZM123.776 72.1133C124.237 69.8264 126.4 68.2896 128.704 68.6289L128.935 68.665C130.105 68.8437 131.115 69.4515 131.824 70.3984C132.515 71.3453 132.799 72.5064 132.64 73.6855C132.321 75.8831 130.442 77.455 128.314 77.4551V77.4736C128.102 77.4736 127.889 77.4735 127.658 77.4199L127.215 77.3301C126.045 77.0977 125.07 76.4191 124.414 75.4365C123.758 74.4539 123.546 73.2746 123.776 72.1133ZM110.995 69.0762C112.023 68.8618 113.07 69.0754 113.956 69.665C114.842 70.2546 115.427 71.1482 115.64 72.2021C116.065 74.3639 114.683 76.4548 112.538 76.8838L112.112 76.9551C111.917 76.9908 111.722 76.9912 111.527 76.9912L111.545 77.0088C109.613 77.0088 107.928 75.5973 107.627 73.6143C107.326 71.5239 108.691 69.5588 110.747 69.1299L110.995 69.0762ZM163.343 59.9639C165.984 59.9639 168.129 62.126 168.129 64.7881C168.129 67.4502 165.984 69.6123 163.343 69.6123C160.702 69.6123 158.557 67.4501 158.557 64.7881C158.557 62.126 160.701 59.9639 163.343 59.9639ZM75.3818 62.8945C76.8706 62.8947 78.076 64.1089 78.0762 65.6094C78.0762 67.1101 76.8708 68.325 75.3818 68.3252C73.8928 68.3252 72.6865 67.1102 72.6865 65.6094C72.6867 64.1088 73.8929 62.8945 75.3818 62.8945ZM186.99 57.6592C188.798 56.1941 191.44 56.4261 192.982 58.1592L193.142 58.3379C193.922 59.2133 194.312 60.357 194.241 61.5361C194.17 62.7152 193.656 63.7871 192.77 64.5732C191.936 65.3236 190.908 65.6816 189.862 65.6816V65.6992C188.657 65.6992 187.452 65.1985 186.583 64.2158L186.281 63.8408C184.792 61.9649 185.094 59.1778 186.99 57.6592ZM216.736 55.8545C218.775 55.8546 220.423 57.5167 220.423 59.5713C220.423 61.6257 218.775 63.287 216.736 63.2871C214.698 63.2871 213.049 61.6258 213.049 59.5713C213.049 57.5166 214.698 55.8545 216.736 55.8545ZM150.012 60.8037H149.994C149.996 60.8037 149.999 60.8027 150.001 60.8027C150.005 60.8027 150.008 60.8037 150.012 60.8037ZM145.917 54.3896C146.945 52.2993 149.427 51.4061 151.554 52.335L151.767 52.4238C153.965 53.4244 154.94 56.0153 153.965 58.2129C153.239 59.8364 151.665 60.8001 150.001 60.8027C149.419 60.8012 148.821 60.6772 148.239 60.4287L147.85 60.2314C146.839 59.7312 146.059 58.8203 145.687 57.7305C145.314 56.6228 145.403 55.4437 145.917 54.3896ZM88.6582 53.9072C90.3245 53.9072 91.6719 55.2649 91.6719 56.9443C91.6719 58.6238 90.3245 59.9814 88.6582 59.9814C86.992 59.9813 85.6446 58.6237 85.6445 56.9443C85.6445 55.2649 86.992 53.9073 88.6582 53.9072ZM130.974 50.2803C131.47 48.19 133.49 46.8679 135.6 47.2607L135.849 47.3145C136.894 47.5111 137.798 48.1186 138.383 49.0117C138.968 49.9051 139.199 50.9771 138.986 52.0312C138.791 53.0854 138.188 53.9963 137.302 54.5859C136.628 55.0326 135.866 55.2646 135.086 55.2646C134.82 55.2646 134.572 55.247 134.306 55.1934L133.916 55.1045C131.789 54.5864 130.46 52.4243 130.974 50.2803ZM103.514 48.1006C105.375 48.1006 106.882 49.6191 106.882 51.4951C106.882 53.3711 105.375 54.8896 103.514 54.8896C101.653 54.8895 100.146 53.371 100.146 51.4951C100.146 49.6192 101.652 48.1008 103.514 48.1006ZM178.553 45.7246C180.822 45.7246 182.665 47.5824 182.665 49.8691C182.665 52.1561 180.822 54.0146 178.553 54.0146C176.284 54.0146 174.44 52.156 174.44 49.8691C174.441 47.5824 176.284 45.7246 178.553 45.7246ZM119.238 45.8672C121.259 45.8674 122.89 47.5288 122.89 49.5654C122.89 51.6021 121.241 53.2634 119.238 53.2637C117.217 53.2637 115.568 51.6022 115.568 49.5654C115.568 47.5287 117.217 45.8672 119.238 45.8672ZM165.595 36.9697C167.58 36.9699 169.211 38.6135 169.211 40.6143C169.211 42.6152 167.58 44.2596 165.595 44.2598C163.609 44.2598 161.979 42.6153 161.979 40.6143C161.979 38.6134 163.609 36.9697 165.595 36.9697ZM151.146 30.7344C152.866 30.7344 154.249 32.1283 154.249 33.8613C154.249 35.5942 152.866 36.9873 151.146 36.9873C149.427 36.9871 148.045 35.5941 148.045 33.8613C148.045 32.1284 149.427 30.7345 151.146 30.7344ZM135.777 27C137.266 27 138.472 28.215 138.472 29.7158C138.472 31.2165 137.266 32.4316 135.777 32.4316C134.288 32.4316 133.083 31.2165 133.083 29.7158C133.083 28.215 134.288 27 135.777 27Z" fill="#D5FC9A"/>
</svg>
