<svg width="320" height="320" viewBox="0 0 320 320" fill="none" xmlns="http://www.w3.org/2000/svg">
<path d="M138.986 277.747C140.971 277.747 142.579 279.367 142.579 281.368C142.579 283.369 140.971 284.989 138.986 284.989C137.001 284.989 135.393 283.369 135.393 281.368C135.393 279.367 137.001 277.747 138.986 277.747ZM118.495 271.674C120.787 271.674 122.631 273.532 122.631 275.843C122.631 278.153 120.787 280.012 118.495 280.012C116.202 280.012 114.358 278.153 114.358 275.843C114.358 273.532 116.202 271.674 118.495 271.674ZM99.2311 262.001C101.878 262.001 104.052 264.192 104.052 266.86C104.052 269.528 101.878 271.721 99.2311 271.721C96.5839 271.721 94.4089 269.528 94.4089 266.86C94.4091 264.192 96.584 262.001 99.2311 262.001ZM43.4733 254.997C45.5769 254.997 47.3024 256.736 47.3024 258.856C47.3023 260.977 45.5769 262.716 43.4733 262.716C41.3699 262.716 39.6443 260.976 39.6442 258.856C39.6442 256.736 41.3699 254.997 43.4733 254.997ZM81.9528 248.971C84.9781 248.971 87.436 251.448 87.4362 254.497C87.4362 257.546 84.9782 260.024 81.9528 260.024C78.9274 260.024 76.4694 257.546 76.4694 254.497C76.4696 251.448 78.9275 248.971 81.9528 248.971ZM161.04 249.947C163.711 249.947 165.932 252.163 165.932 254.879C165.932 257.594 163.734 259.81 161.04 259.81C158.345 259.809 156.171 257.594 156.171 254.879C156.171 252.163 158.369 249.947 161.04 249.947ZM136.955 248.232C138.136 247.446 139.555 247.136 140.949 247.422L141.469 247.541C144.305 248.232 146.078 251.114 145.393 253.973C144.826 256.426 142.651 258.095 140.217 258.095C139.886 258.095 139.554 258.07 139.223 257.999L138.893 257.928C137.499 257.666 136.293 256.855 135.513 255.664C134.733 254.473 134.426 253.044 134.71 251.639C134.97 250.233 135.773 249.019 136.955 248.232ZM114.712 243.372C116.012 240.442 119.463 239.132 122.37 240.418L122.89 240.68C124.237 241.347 125.277 242.562 125.773 244.015C126.269 245.492 126.152 247.064 125.467 248.47C124.45 250.518 122.417 251.71 120.29 251.71H120.266C119.486 251.71 118.683 251.542 117.926 251.209L117.642 251.09C114.712 249.756 113.412 246.302 114.712 243.372ZM31.0417 236.606C33.7597 236.607 35.9577 238.822 35.9577 241.562C35.9577 244.301 33.7597 246.516 31.0417 246.517C28.3236 246.517 26.1247 244.301 26.1247 241.562C26.1247 238.822 28.3236 236.606 31.0417 236.606ZM62.9968 234.867C65.4076 232.723 69.0949 232.937 71.2458 235.367L71.6472 235.867C73.6326 238.369 73.2309 242.085 70.7019 244.11C69.6383 244.968 68.3384 245.396 67.0622 245.396V245.373C65.455 245.373 63.8471 244.705 62.7126 243.419L62.5007 243.181C61.4608 242.013 60.9403 240.489 61.0349 238.917C61.1294 237.345 61.815 235.915 62.9968 234.867ZM102.232 228.197C105.754 228.197 108.614 231.08 108.614 234.629C108.614 238.178 105.754 241.062 102.232 241.062C98.7105 241.061 95.8503 238.178 95.8503 234.629C95.8505 231.08 98.7106 228.197 102.232 228.197ZM143.146 222.695C143.619 219.479 146.597 217.264 149.788 217.74L150.379 217.859C151.939 218.169 153.238 219.075 154.113 220.385C154.987 221.695 155.272 223.267 154.965 224.815C154.397 227.579 151.986 229.509 149.244 229.509C148.96 229.509 148.677 229.508 148.393 229.437L148.086 229.39C146.526 229.151 145.178 228.341 144.233 227.078C143.312 225.816 142.933 224.267 143.146 222.695ZM170.541 218.384C173.448 217.931 176.118 219.956 176.544 222.839C176.945 225.626 175.126 228.245 172.384 228.817L172.053 228.89C171.699 228.961 171.368 228.984 171.013 228.984H170.99C169.974 228.984 168.957 228.675 168.083 228.104C166.901 227.317 166.12 226.126 165.837 224.721C165.269 221.838 167.113 219.05 169.973 218.479L170.541 218.384ZM51.3688 216.263C52.8342 215.358 54.5365 215.095 56.2145 215.477C57.8926 215.882 59.2871 216.907 60.1853 218.384L60.4919 218.955C61.2955 220.456 61.4851 222.195 61.0124 223.862C60.5397 225.506 59.4282 226.888 57.9392 227.722C56.9702 228.246 55.9302 228.508 54.8903 228.508V228.46C52.7395 228.46 50.6358 227.364 49.4304 225.411L49.2653 225.148C48.3673 223.672 48.0834 221.933 48.4851 220.266C48.8869 218.574 49.9034 217.168 51.3688 216.263ZM20.9011 216.954C24.0447 216.954 26.5974 219.527 26.5974 222.695C26.5973 225.864 24.0446 228.437 20.9011 228.437C17.7576 228.436 15.2048 225.864 15.2048 222.695C15.2048 219.527 17.7576 216.954 20.9011 216.954ZM82.8513 214.334C85.6875 211.928 89.9416 212.285 92.3288 215.144L92.6833 215.597C93.7941 217.05 94.2673 218.836 94.031 220.646C93.7946 222.433 92.8728 224.029 91.4548 225.125C90.2257 226.078 88.8067 226.53 87.3649 226.53V226.555C85.4506 226.555 83.5596 225.721 82.236 224.148L82.0231 223.887C80.8887 222.529 80.3216 220.766 80.487 218.955C80.6525 217.145 81.4804 215.501 82.8513 214.334ZM128.374 209.545C131.895 209.545 134.755 212.427 134.756 215.977C134.756 219.526 131.895 222.409 128.374 222.409C124.852 222.409 121.992 219.526 121.992 215.977C121.992 212.427 124.852 209.545 128.374 209.545ZM191.883 211.379C194.531 211.379 196.658 213.547 196.658 216.191C196.658 218.835 194.507 221.003 191.883 221.003C189.26 221.003 187.109 218.835 187.109 216.191C187.109 213.547 189.236 211.379 191.883 211.379ZM45.8845 209.688H45.8366C45.8437 209.688 45.8511 209.688 45.8581 209.688C45.8668 209.688 45.8758 209.688 45.8845 209.688ZM43.1901 195.8C44.9391 195.109 46.8303 195.133 48.5319 195.896C50.2335 196.634 51.5565 198.016 52.2419 199.778L52.4548 200.397C53.6839 204.114 51.6984 208.092 48.0349 209.331C47.3093 209.567 46.5837 209.685 45.8581 209.688C43.0788 209.677 40.4683 207.988 39.3845 205.233L39.2663 204.972C37.8481 201.327 39.6211 197.229 43.1901 195.8ZM11.8952 196.371C15.2515 195.251 18.8917 197.11 20.0026 200.492L20.2155 201.278C20.6173 202.946 20.3576 204.685 19.4597 206.138C18.5616 207.615 17.1668 208.663 15.5124 209.068C15.0162 209.187 14.4959 209.259 13.9997 209.259C11.3052 209.259 8.79924 207.52 7.90107 204.852L7.78291 204.519C7.26297 202.899 7.38108 201.16 8.16084 199.611C8.94075 198.063 10.2645 196.919 11.8952 196.371ZM76.0681 209.115H76.0446C76.0476 209.115 76.0505 209.114 76.0534 209.114C76.0583 209.114 76.0632 209.115 76.0681 209.115ZM72.6413 195.108C76.163 193.298 80.5118 194.68 82.3317 198.253L82.5915 198.801C83.4187 200.587 83.4898 202.565 82.8044 204.375C82.1426 206.185 80.7954 207.638 79.0466 208.448C78.0804 208.9 77.0668 209.113 76.0534 209.114C73.4352 209.109 70.9368 207.658 69.6628 205.161L69.5212 204.899C68.6467 203.16 68.4811 201.207 69.072 199.349C69.6629 197.491 70.9159 195.99 72.6413 195.108ZM111.829 194.489C113.696 194.608 115.398 195.442 116.627 196.871L117.052 197.396C118.234 198.896 118.753 200.731 118.541 202.612C118.328 204.494 117.407 206.162 115.941 207.329C114.665 208.353 113.129 208.853 111.616 208.854L111.639 208.83C109.701 208.83 107.787 208.02 106.392 206.447L106.179 206.209C103.627 203.279 103.887 198.825 106.77 196.252C108.165 195.013 110.009 194.346 111.829 194.489ZM208.713 197.657C211.005 197.657 212.873 199.539 212.873 201.85C212.873 204.16 211.005 206.043 208.713 206.043C206.42 206.043 204.552 204.16 204.552 201.85C204.553 199.539 206.42 197.657 208.713 197.657ZM146.503 187.581C147.921 186.771 149.552 186.557 151.112 187.01C151.277 187.057 151.514 187.129 151.703 187.2L151.939 187.296C155.106 188.535 156.666 192.083 155.461 195.204C154.539 197.61 152.27 199.111 149.812 199.111V199.088C149.292 199.088 148.748 199.016 148.205 198.873L147.874 198.777C146.314 198.348 145.014 197.324 144.211 195.919C143.407 194.49 143.194 192.846 143.643 191.273C144.069 189.701 145.085 188.391 146.503 187.581ZM170.399 198.11H170.352C170.361 198.11 170.369 198.109 170.378 198.109C170.385 198.109 170.392 198.11 170.399 198.11ZM169.359 188.034C170.683 187.677 172.03 187.867 173.188 188.534C174.346 189.201 175.173 190.297 175.528 191.607C176.213 194.109 174.89 196.729 172.456 197.658L172.148 197.777C171.566 197.989 170.983 198.106 170.378 198.109C169.676 198.106 168.974 197.965 168.319 197.658C167.09 197.11 166.145 196.086 165.673 194.823C164.703 192.203 166.003 189.273 168.603 188.272L169.359 188.034ZM97.695 175.146C99.5858 174.407 101.643 174.455 103.486 175.265C105.33 176.075 106.771 177.576 107.504 179.481L107.74 180.125C108.402 182.102 108.237 184.151 107.339 185.985C106.44 187.796 104.88 189.154 102.966 189.797C102.186 190.059 101.382 190.178 100.579 190.178V190.201C97.5534 190.201 94.7167 188.343 93.5349 185.365L93.4167 185.032C91.904 181.125 93.8187 176.694 97.695 175.146ZM38.864 174.192C40.8494 173.787 42.8587 174.193 44.5368 175.312C46.2149 176.432 47.3733 178.171 47.7751 180.148L47.8933 180.839C48.2005 182.864 47.6807 184.889 46.4753 186.509C45.2699 188.129 43.4968 189.2 41.5114 189.51C41.1334 189.557 40.7791 189.582 40.4011 189.582V189.605C36.8557 189.605 33.7117 187.08 33.0026 183.507L32.9313 183.197C32.1041 179.052 34.7515 175.026 38.864 174.192ZM67.1101 174.025C71.2226 172.977 75.3826 175.502 76.4226 179.647L76.5642 180.267C76.9896 182.315 76.5637 184.364 75.4528 186.104C74.3184 187.818 72.5933 189.009 70.5847 189.414C70.0647 189.533 69.5441 189.581 69.0241 189.581V189.558C65.597 189.558 62.4768 187.223 61.6022 183.721L61.5319 183.388C61.0356 181.41 61.3423 179.337 62.406 177.551C63.4696 175.788 65.1246 174.526 67.1101 174.025ZM9.60322 189.225H9.57978C9.58304 189.225 9.58629 189.224 9.58955 189.224C9.59411 189.224 9.59866 189.225 9.60322 189.225ZM8.27998 174.359C10.1943 174.026 12.132 174.431 13.7155 175.551C15.3228 176.67 16.3866 178.361 16.7175 180.291C16.7411 180.482 16.7888 180.696 16.7888 180.887V181.173C17.214 185.199 14.2831 188.795 10.2888 189.2C10.0557 189.2 9.82259 189.223 9.58955 189.224C6.14425 189.217 3.07844 186.695 2.44111 183.197L2.39424 182.888C1.68516 178.886 4.33276 175.074 8.27998 174.359ZM128.28 174.717C129.745 173.526 131.613 172.978 133.504 173.192C135.394 173.407 137.073 174.335 138.278 175.836C138.42 176.026 138.561 176.218 138.703 176.408L138.845 176.646C140.996 180.029 140.05 184.459 136.765 186.604C135.584 187.39 134.236 187.747 132.913 187.747V187.771C130.833 187.771 128.776 186.842 127.382 185.079L127.169 184.794C125.987 183.293 125.443 181.434 125.656 179.528C125.869 177.623 126.815 175.908 128.28 174.717ZM219.823 178.934C221.808 178.934 223.416 180.554 223.416 182.555C223.416 184.556 221.808 186.176 219.823 186.176C217.838 186.176 216.23 184.556 216.23 182.555C216.23 180.554 217.838 178.934 219.823 178.934ZM187.465 176.503C189.71 176.503 191.553 178.361 191.553 180.624C191.553 182.887 189.71 184.745 187.465 184.745C185.195 184.745 183.375 182.887 183.375 180.624C183.375 178.361 185.219 176.503 187.465 176.503ZM38.3444 152.301C40.5425 152.301 42.5753 153.039 44.1589 154.563C45.7424 156.064 46.6408 158.113 46.6882 160.305V160.925C46.5698 165.356 42.9298 168.881 38.5573 168.881V168.857C38.5573 168.857 38.4153 168.857 38.3444 168.857C34.0191 168.738 30.5447 165.236 30.4265 160.877C30.3792 158.519 31.1591 156.446 32.6481 154.85C34.1372 153.254 36.17 152.348 38.3444 152.301ZM66.4948 152.301C68.7402 152.301 70.7257 153.063 72.3093 154.588C73.8693 156.113 74.7679 158.137 74.8151 160.329V160.829C74.7679 163.045 73.8692 165.093 72.3093 166.594C70.7966 168.071 68.7878 168.857 66.6843 168.857V168.881H66.4948C62.1223 168.785 58.6482 165.26 58.53 160.853C58.4357 156.16 62.0042 152.396 66.4948 152.301ZM96.5368 152.3C100.957 152.181 104.762 155.778 104.881 160.28V160.828C104.81 163.067 103.911 165.093 102.351 166.617C100.839 168.07 98.8532 168.88 96.7497 168.88C96.7497 168.88 96.6078 168.88 96.5368 168.88C92.2115 168.761 88.7371 165.259 88.6188 160.876C88.5007 156.183 92.0696 152.419 96.5368 152.3ZM193.988 152.206C198.171 152.42 201.505 155.779 201.694 160.043V160.353C201.789 162.473 201.032 164.569 199.566 166.165C198.101 167.785 196.092 168.714 193.918 168.81H193.563L193.54 168.834C191.507 168.834 189.568 168.072 188.055 166.666C186.448 165.189 185.527 163.164 185.432 160.973V160.091C185.551 157.78 186.496 155.779 188.127 154.302C189.734 152.825 191.814 152.111 193.988 152.206ZM7.80732 152.253C10.0291 152.158 12.0616 152.944 13.6452 154.421C15.2523 155.898 16.1738 157.946 16.2448 160.138V160.924C16.0557 165.355 12.4638 168.833 8.11494 168.833L8.13838 168.81C8.13838 168.81 7.92553 168.81 7.80732 168.81C3.6002 168.643 0.173102 165.188 0.007517 160.948C-0.181571 156.255 3.34011 152.444 7.80732 152.253ZM126.105 152.181C128.256 152.085 130.359 152.848 131.967 154.325C133.574 155.802 134.496 157.827 134.591 160.019V160.899C134.472 163.21 133.527 165.212 131.896 166.688C130.384 168.046 128.469 168.809 126.46 168.809L126.483 168.785H126.034C121.85 168.571 118.518 165.211 118.329 160.947V160.638C118.234 158.518 118.99 156.421 120.456 154.825C121.921 153.205 123.931 152.276 126.105 152.181ZM312.192 152.204C316.399 152.371 319.826 155.825 319.992 160.065C320.181 164.758 316.659 168.57 312.192 168.761H311.861C309.805 168.761 307.867 167.998 306.331 166.593C304.724 165.116 303.801 163.068 303.73 160.876V160.09C303.919 155.54 307.749 151.99 312.192 152.204ZM281.676 152.133C286.002 152.252 289.476 155.754 289.594 160.113C289.642 162.472 288.862 164.545 287.373 166.141C285.884 167.737 283.851 168.642 281.676 168.689H281.464V168.713C279.36 168.713 277.398 167.927 275.862 166.45C274.278 164.949 273.38 162.901 273.333 160.709V160.09C273.451 155.659 277.091 152.133 281.464 152.133H281.676ZM223.485 152.086C227.81 152.205 231.285 155.707 231.403 160.09C231.521 164.783 227.952 168.547 223.485 168.666H223.272V168.69C218.876 168.69 215.236 165.14 215.141 160.686V160.138C215.212 157.898 216.111 155.873 217.671 154.349C219.254 152.848 221.24 152.134 223.485 152.086ZM253.503 152.109C257.875 152.205 261.35 155.731 261.468 160.138C261.563 164.831 257.993 168.594 253.503 168.689H253.314L253.338 168.666C251.234 168.666 249.224 167.856 247.712 166.379C246.152 164.854 245.254 162.829 245.207 160.638V160.138C245.254 157.922 246.152 155.873 247.712 154.372C249.272 152.871 251.234 152.062 253.503 152.109ZM183.257 134.387C186.329 132.386 190.371 133.052 192.64 135.911L192.852 136.197C194.034 137.698 194.578 139.556 194.365 141.462C194.152 143.367 193.207 145.082 191.742 146.273C190.466 147.298 188.929 147.846 187.322 147.846C187.062 147.846 186.778 147.846 186.518 147.799C184.627 147.584 182.949 146.655 181.744 145.154C181.602 144.964 181.46 144.773 181.318 144.582L181.176 144.344C179.026 140.961 179.971 136.531 183.257 134.387ZM251.045 147.227H251.021C251.024 147.227 251.028 147.226 251.031 147.226C251.036 147.226 251.04 147.227 251.045 147.227ZM249.437 131.623C253.455 130.789 257.402 133.291 258.395 137.293L258.467 137.626C258.963 139.603 258.656 141.676 257.592 143.463C256.529 145.226 254.874 146.488 252.888 146.988C252.277 147.154 251.642 147.225 251.031 147.226C247.609 147.219 244.473 144.887 243.599 141.39L243.458 140.771C243.032 138.722 243.458 136.674 244.569 134.935C245.703 133.219 247.428 132.028 249.437 131.623ZM279.668 146.939H279.644C279.647 146.939 279.651 146.938 279.654 146.938C279.658 146.938 279.663 146.939 279.668 146.939ZM278.509 131.455C282.48 130.86 286.215 133.528 287.018 137.482L287.09 137.792C287.917 141.937 285.269 145.963 281.157 146.797C280.664 146.892 280.147 146.938 279.654 146.938C278.193 146.936 276.756 146.508 275.484 145.653C273.806 144.534 272.648 142.795 272.246 140.817L272.128 140.126C271.821 138.101 272.34 136.077 273.546 134.457C274.751 132.837 276.524 131.765 278.509 131.455ZM309.733 131.789C313.444 131.408 316.919 134.053 317.604 137.793L317.651 138.103C318.36 142.105 315.713 145.916 311.766 146.631C311.341 146.702 310.892 146.75 310.467 146.75H310.442C308.977 146.75 307.535 146.297 306.306 145.439C304.699 144.32 303.635 142.629 303.304 140.699C303.281 140.509 303.233 140.294 303.233 140.104V139.817C302.808 135.792 305.739 132.194 309.733 131.789ZM217.056 131.193C220.862 129.907 224.999 131.861 226.488 135.648L226.606 135.982C228.118 139.889 226.204 144.32 222.328 145.868C221.43 146.225 220.484 146.393 219.562 146.393V146.368C218.522 146.368 217.506 146.154 216.537 145.726C214.693 144.916 213.251 143.415 212.518 141.509L212.282 140.865C211.62 138.888 211.786 136.839 212.684 135.005C213.582 133.195 215.142 131.837 217.056 131.193ZM132.558 136.268C134.804 136.268 136.647 138.126 136.647 140.389C136.647 142.652 134.804 144.51 132.558 144.51C130.289 144.51 128.469 142.652 128.469 140.389C128.47 138.126 130.313 136.268 132.558 136.268ZM100.2 134.814C102.185 134.814 103.793 136.434 103.793 138.436C103.793 140.437 102.185 142.057 100.2 142.057C98.2146 142.057 96.6072 140.436 96.6071 138.436C96.6071 136.435 98.2146 134.815 100.2 134.814ZM164.585 125.834C165.719 122.904 168.839 121.308 171.841 122.142L172.172 122.236C173.732 122.665 175.031 123.69 175.835 125.096C176.638 126.525 176.851 128.168 176.402 129.74C175.977 131.312 174.961 132.623 173.543 133.433C172.621 133.957 171.581 134.243 170.541 134.243C169.997 134.243 169.453 134.171 168.933 134.028C168.768 133.981 168.532 133.909 168.342 133.838L168.106 133.743C164.939 132.504 163.379 128.955 164.585 125.834ZM147.827 123.213C149.08 122.736 150.45 122.784 151.679 123.332C152.908 123.88 153.854 124.904 154.327 126.167C155.296 128.787 153.996 131.717 151.396 132.718L150.639 132.956C150.19 133.075 149.741 133.146 149.292 133.146V133.123C148.417 133.123 147.567 132.885 146.787 132.456C145.629 131.789 144.802 130.693 144.447 129.383C143.762 126.882 145.085 124.261 147.519 123.332L147.827 123.213ZM244.095 126.667H244.072C244.075 126.667 244.077 126.666 244.08 126.666C244.085 126.666 244.09 126.667 244.095 126.667ZM240.952 112.517C244.45 110.897 248.586 112.351 250.335 115.805L250.477 116.066C251.352 117.805 251.517 119.759 250.926 121.617C250.336 123.475 249.082 124.976 247.357 125.857C246.32 126.404 245.188 126.665 244.08 126.666C241.462 126.66 238.941 125.209 237.667 122.713L237.406 122.165C236.579 120.378 236.508 118.401 237.193 116.591C237.855 114.78 239.203 113.327 240.952 112.517ZM204.057 113.66C206.965 111.326 211.172 111.708 213.631 114.519L213.843 114.757C216.396 117.687 216.135 122.141 213.252 124.714C211.952 125.857 210.345 126.477 208.643 126.477L208.62 126.501H208.171C206.303 126.382 204.601 125.547 203.372 124.118L202.947 123.595C201.765 122.094 201.245 120.259 201.458 118.377C201.671 116.495 202.592 114.827 204.057 113.66ZM271.939 111.659C275.437 110.468 279.266 112.279 280.637 115.757L280.756 116.02C282.173 119.664 280.401 123.761 276.832 125.19C276.004 125.524 275.13 125.69 274.256 125.69H274.232C273.287 125.69 272.341 125.501 271.443 125.096C269.741 124.357 268.418 122.975 267.732 121.212L267.519 120.593C266.29 116.877 268.276 112.898 271.939 111.659ZM304.533 111.944C307.724 111.158 311.08 113.017 312.143 116.185L312.261 116.519C312.781 118.138 312.663 119.877 311.883 121.426C311.104 122.974 309.78 124.118 308.149 124.666C307.487 124.88 306.826 124.999 306.164 124.999L306.14 124.976C303.446 124.976 300.916 123.236 300.042 120.521L299.829 119.734C299.427 118.067 299.688 116.328 300.586 114.875C301.484 113.398 302.878 112.349 304.533 111.944ZM111.309 114.947C113.602 114.947 115.468 116.829 115.468 119.14C115.468 121.45 113.602 123.333 111.309 123.333C109.017 123.333 107.149 121.45 107.149 119.14C107.149 116.829 109.017 114.947 111.309 114.947ZM191.648 98.6045C195.17 98.6045 198.03 101.487 198.03 105.036C198.03 108.586 195.17 111.469 191.648 111.469C188.126 111.469 185.266 108.586 185.266 105.036C185.266 101.487 188.127 98.6046 191.648 98.6045ZM128.138 99.9863C130.762 99.9863 132.913 102.155 132.913 104.799C132.913 107.443 130.785 109.61 128.138 109.61C125.515 109.61 123.364 107.443 123.364 104.799C123.364 102.155 125.515 99.9865 128.138 99.9863ZM228.567 95.8408C231.403 93.6254 235.47 94.0784 237.786 96.8418L237.998 97.1035C239.132 98.4614 239.7 100.225 239.535 102.035C239.369 103.846 238.541 105.489 237.171 106.656C235.918 107.728 234.382 108.252 232.845 108.252V108.229C230.931 108.228 229.017 107.418 227.693 105.822L227.339 105.37C226.228 103.917 225.755 102.13 225.991 100.319C226.227 98.5328 227.149 96.9366 228.567 95.8408ZM262.084 93.3164C265.062 91.6729 268.796 92.6732 270.616 95.5791L270.782 95.8418C271.68 97.3187 271.963 99.0581 271.561 100.726C271.159 102.417 270.144 103.822 268.678 104.728C267.662 105.371 266.504 105.681 265.322 105.681L265.298 105.728C264.801 105.727 264.305 105.657 263.809 105.562C262.131 105.157 260.736 104.131 259.838 102.654L259.531 102.083C258.727 100.582 258.538 98.8433 259.01 97.1758C259.483 95.532 260.595 94.1502 262.084 93.3164ZM299.121 92.5537C302.264 92.5537 304.817 95.1266 304.817 98.2949C304.817 101.463 302.264 104.036 299.121 104.036C295.977 104.036 293.425 101.463 293.425 98.2949C293.425 95.1267 295.977 92.5539 299.121 92.5537ZM165.034 96.1514C165.648 93.1021 168.532 91.0532 171.605 91.5059L171.912 91.5537C173.472 91.7919 174.819 92.6018 175.764 93.8643C176.686 95.1268 177.065 96.6758 176.852 98.248C176.427 101.178 173.921 103.274 171.085 103.274V103.298C170.801 103.298 170.518 103.298 170.211 103.227L169.62 103.107C168.06 102.798 166.759 101.892 165.884 100.582C165.01 99.2719 164.727 97.6997 165.034 96.1514ZM147.993 92.1016C149.364 91.8157 150.758 92.1016 151.94 92.8877C153.122 93.6738 153.903 94.865 154.186 96.2705C154.753 99.1529 152.909 101.94 150.05 102.512L149.482 102.607C149.222 102.655 148.962 102.654 148.702 102.654L148.726 102.679C146.15 102.679 143.904 100.797 143.503 98.1523C143.101 95.3653 144.92 92.7448 147.662 92.1729L147.993 92.1016ZM217.79 79.9521C221.311 79.9523 224.171 82.8345 224.172 86.3838C224.172 89.9332 221.311 92.8163 217.79 92.8164C214.268 92.8164 211.408 89.9333 211.408 86.3838C211.408 82.8344 214.268 79.9521 217.79 79.9521ZM100.508 83.8594C102.493 83.8595 104.1 85.4795 104.1 87.4805C104.1 89.4814 102.493 91.1014 100.508 91.1016C98.5221 91.1016 96.9148 89.4815 96.9147 87.4805C96.9147 85.4794 98.5221 83.8594 100.508 83.8594ZM249.32 76.8789C251.731 74.9257 255.253 75.2353 257.309 77.5459L257.522 77.7842C258.562 78.9515 259.082 80.4766 258.987 82.0488C258.892 83.621 258.207 85.0505 257.025 86.0986C255.914 87.099 254.544 87.5752 253.149 87.5752V87.5996C251.542 87.5996 249.934 86.9323 248.776 85.6221L248.375 85.1221C246.389 82.6207 246.791 78.9038 249.32 76.8789ZM288.98 74.4727C291.698 74.4729 293.896 76.6883 293.896 79.4277C293.896 82.1671 291.698 84.3826 288.98 84.3828C286.262 84.3828 284.063 82.1673 284.063 79.4277C284.063 76.6882 286.262 74.4727 288.98 74.4727ZM200.014 81.0713H199.991C199.994 81.0713 199.997 81.0703 200.001 81.0703C200.005 81.0703 200.01 81.0713 200.014 81.0713ZM194.554 72.5186C195.925 69.7316 199.235 68.5406 202.071 69.7793L202.354 69.8984C205.285 71.2325 206.585 74.6871 205.285 77.6172C204.317 79.7816 202.219 81.0665 200.001 81.0703C199.225 81.0684 198.426 80.9027 197.651 80.5713L197.131 80.3086C195.783 79.6415 194.744 78.4266 194.248 76.9736C193.751 75.4967 193.869 73.9241 194.554 72.5186ZM118.21 71.876C120.431 71.876 122.228 73.6865 122.228 75.9258C122.228 78.1651 120.431 79.9756 118.21 79.9756C115.988 79.9754 114.192 78.1649 114.192 75.9258C114.192 73.6866 115.988 71.8762 118.21 71.876ZM174.63 67.041C175.291 64.2539 177.986 62.4908 180.799 63.0146L181.13 63.0859C182.524 63.348 183.729 64.1585 184.509 65.3496C185.289 66.5406 185.597 67.9696 185.313 69.375C185.053 70.7805 184.25 71.9961 183.068 72.7822C182.17 73.3778 181.153 73.6875 180.113 73.6875C179.759 73.6875 179.427 73.6632 179.073 73.5918L178.553 73.4727C175.717 72.7818 173.944 69.8996 174.63 67.041ZM138.017 64.1338C140.499 64.1338 142.508 66.1588 142.508 68.6602C142.508 71.1614 140.499 73.1865 138.017 73.1865C135.536 73.1865 133.526 71.1614 133.526 68.6602C133.526 66.1588 135.536 64.1338 138.017 64.1338ZM238.07 60.9668C241.095 60.9671 243.553 63.4443 243.553 66.4932C243.553 69.5422 241.095 72.0203 238.07 72.0205C235.045 72.0205 232.586 69.5424 232.586 66.4932C232.586 63.4441 235.045 60.9668 238.07 60.9668ZM158.982 61.1562C161.677 61.1562 163.851 63.3722 163.851 66.0879C163.851 68.8034 161.653 71.0186 158.982 71.0186C156.288 71.0183 154.09 68.8033 154.09 66.0879C154.09 63.3723 156.288 61.1565 158.982 61.1562ZM220.791 49.293C223.438 49.293 225.613 51.4844 225.613 54.1523C225.613 56.8204 223.438 59.0127 220.791 59.0127C218.144 59.0125 215.969 56.8203 215.969 54.1523C215.97 51.4845 218.144 49.2931 220.791 49.293ZM201.528 40.9795C203.821 40.9795 205.665 42.8377 205.665 45.1484C205.665 47.4592 203.821 49.3174 201.528 49.3174C199.236 49.3172 197.392 47.459 197.392 45.1484C197.392 42.8378 199.236 40.9797 201.528 40.9795ZM181.036 36C183.021 36.0001 184.629 37.6201 184.629 39.6211C184.629 41.622 183.021 43.2421 181.036 43.2422C179.05 43.2422 177.443 41.6221 177.443 39.6211C177.443 37.62 179.05 36 181.036 36Z" fill="#D5FC9A"/>
</svg>
