<svg width="276" height="84" viewBox="0 0 276 84" fill="none" xmlns="http://www.w3.org/2000/svg">
<path d="M46.8892 81.5566C47.5588 81.5568 48.1011 82.1034 48.1011 82.7783C48.1009 83.4532 47.5587 83.9998 46.8892 84C46.2194 84 45.6764 83.4533 45.6763 82.7783C45.6763 82.1032 46.2194 81.5566 46.8892 81.5566ZM39.9761 79.5068C40.7494 79.507 41.3716 80.1346 41.3716 80.9141C41.3713 81.6933 40.7493 82.3202 39.9761 82.3203C39.2028 82.3203 38.5808 81.6934 38.5806 80.9141C38.5806 80.1345 39.2026 79.5068 39.9761 79.5068ZM33.477 76.2441C34.3699 76.2444 35.103 76.9838 35.103 77.8838C35.103 78.7837 34.3699 79.5232 33.477 79.5234C32.584 79.5234 31.8501 78.7839 31.8501 77.8838C31.8501 76.9837 32.584 76.2441 33.477 76.2441ZM250.39 18.2676C257.694 18.2677 263.898 21.4346 267.917 26.4414V19.8916H275.587V79.041H267.549V56.5146C263.531 61.3685 257.399 64.4628 250.39 64.4629C238.047 64.4629 228.701 54.0068 228.701 41.6465C228.701 29.2861 238.047 18.2676 250.39 18.2676ZM14.6665 73.8818C15.3761 73.8819 15.9585 74.4684 15.9585 75.1836C15.9584 75.8988 15.3761 76.4853 14.6665 76.4854C13.9569 76.4854 13.3746 75.8988 13.3745 75.1836C13.3745 74.4683 13.9568 73.8818 14.6665 73.8818ZM27.6479 71.8486C28.6685 71.8487 29.4976 72.6843 29.4976 73.7129C29.4975 74.7414 28.6685 75.5771 27.6479 75.5771C26.6274 75.5771 25.7975 74.7415 25.7974 73.7129C25.7974 72.6842 26.6273 71.8486 27.6479 71.8486ZM54.3286 72.1777C55.2294 72.1778 55.9787 72.9249 55.979 73.8408C55.979 74.757 55.2376 75.5048 54.3286 75.5049C53.4196 75.5049 52.686 74.757 52.686 73.8408C52.6863 72.9249 53.4277 72.1777 54.3286 72.1777ZM46.2026 71.5986C46.6013 71.3335 47.0799 71.2298 47.5503 71.3262L47.7261 71.3662C48.6829 71.5993 49.2805 72.5718 49.0493 73.5361C48.8578 74.3638 48.1244 74.9258 47.3032 74.9258C47.1916 74.9258 47.0798 74.9186 46.9683 74.8945L46.8569 74.8701C46.3865 74.7817 45.9794 74.5083 45.7163 74.1064C45.4533 73.7046 45.3501 73.2221 45.4458 72.748C45.5336 72.274 45.8041 71.8638 46.2026 71.5986ZM38.6997 69.96C39.1382 68.9716 40.302 68.5292 41.2827 68.9629L41.4585 69.0518C41.913 69.2768 42.2637 69.6866 42.4311 70.1768C42.5986 70.675 42.5589 71.2056 42.3276 71.6797C41.9847 72.3707 41.2991 72.7724 40.5815 72.7725H40.5737C40.3106 72.7725 40.0389 72.716 39.7837 72.6035L39.688 72.5635C38.6995 72.1134 38.2614 70.9483 38.6997 69.96ZM10.4722 67.6768C11.389 67.6768 12.1303 68.4245 12.1304 69.3486C12.1304 70.2728 11.3891 71.0204 10.4722 71.0205C9.55517 71.0205 8.81298 70.2728 8.81298 69.3486C8.81307 68.4245 9.55523 67.6768 10.4722 67.6768ZM21.2534 67.0908C22.0666 66.3677 23.31 66.4395 24.0356 67.2588L24.1714 67.4277C24.8411 68.2715 24.7061 69.5258 23.853 70.209C23.4942 70.4983 23.0551 70.6426 22.6245 70.6426V70.6348C22.0824 70.6347 21.5404 70.4095 21.1577 69.9756L21.0854 69.8955C20.7347 69.5018 20.5595 68.9873 20.5913 68.457C20.6232 67.9266 20.8547 67.4444 21.2534 67.0908ZM34.4888 64.8398C35.6768 64.8398 36.6419 65.8125 36.6421 67.0098C36.6421 68.2072 35.6769 69.1797 34.4888 69.1797C33.3009 69.1795 32.3364 68.2071 32.3364 67.0098C32.3366 65.8126 33.301 64.8401 34.4888 64.8398ZM50.5337 61.3125L50.7329 61.3525C51.259 61.4571 51.6977 61.7622 51.9927 62.2041C52.2877 62.6461 52.3834 63.1768 52.2798 63.6992C52.0884 64.6313 51.2749 65.2821 50.3501 65.2822C50.2544 65.2822 50.1586 65.2819 50.063 65.2578L49.9595 65.2422C49.4334 65.1618 48.9786 64.8886 48.6597 64.4629C48.3487 64.0369 48.2207 63.5138 48.2925 62.9834C48.4521 61.8986 49.4573 61.1518 50.5337 61.3125ZM57.5337 61.5293C58.5145 61.3766 59.4155 62.0598 59.5591 63.0322C59.6945 63.9724 59.0806 64.8559 58.1558 65.0488L58.0444 65.0732C57.9248 65.0974 57.8125 65.1055 57.6929 65.1055H57.6851C57.3423 65.1054 56.9995 65.0005 56.7046 64.8076C56.306 64.5424 56.0425 64.1411 55.9468 63.667C55.7554 62.6946 56.3776 61.7545 57.3423 61.5615L57.5337 61.5293ZM176.4 18.4688C190.131 18.4688 200.354 29.0689 200.354 41.7266C200.354 54.3843 190.203 64.9854 176.4 64.9854C162.597 64.9852 152.519 54.3842 152.519 41.7266C152.519 29.069 162.669 18.4689 176.4 18.4688ZM17.3296 60.8135C17.8239 60.5082 18.3983 60.4203 18.9644 60.5488C19.5304 60.6855 20.0012 61.0311 20.3042 61.5293L20.4077 61.7217C20.6788 62.228 20.742 62.8154 20.5825 63.3779C20.423 63.9323 20.0486 64.3985 19.5464 64.6797C19.2196 64.8564 18.8688 64.9443 18.5181 64.9443V64.9287C17.7925 64.9287 17.082 64.5593 16.6753 63.9004L16.6196 63.8115C16.3167 63.3133 16.2214 62.7266 16.3569 62.1641C16.4925 61.5935 16.8352 61.1189 17.3296 60.8135ZM7.05127 61.0469C8.11167 61.0469 8.97294 61.9147 8.97314 62.9834C8.97314 64.0523 8.11179 64.9209 7.05127 64.9209C5.99088 64.9207 5.12939 64.0522 5.12939 62.9834C5.12959 61.9148 5.991 61.047 7.05127 61.0469ZM27.9507 60.1631C28.9075 59.3514 30.3436 59.4721 31.1489 60.4365L31.2681 60.5889C31.6428 61.0791 31.8029 61.6822 31.7231 62.293C31.6433 62.8955 31.3323 63.4341 30.854 63.8037C30.4394 64.1252 29.9605 64.2773 29.4741 64.2773V64.2861C28.8282 64.2861 28.1902 64.0041 27.7436 63.4736L27.6724 63.3857C27.2896 62.9277 27.098 62.3325 27.1538 61.7217C27.2097 61.1112 27.4885 60.5568 27.9507 60.1631ZM43.3091 58.5479C44.4971 58.548 45.4614 59.5204 45.4614 60.7178C45.4612 61.915 44.497 62.8876 43.3091 62.8877C42.1211 62.8877 41.1559 61.9151 41.1558 60.7178C41.1558 59.5203 42.121 58.5479 43.3091 58.5479ZM140.359 19.8916H149.433V26.8105H140.359V62.8555H132.329V26.8105H123.327V19.8916H132.329V14.498C132.329 9.53962 135.623 5.20034 140.359 3.89844V19.8916ZM224.801 27.7988H220.304C216.684 27.7988 213.75 30.7646 213.75 34.4131V62.8467H205.29V34.4131C205.29 26.0712 212.027 19.2803 220.304 19.2803H224.801V27.7988ZM64.7339 59.166C65.627 59.166 66.3452 59.898 66.3452 60.79C66.345 61.682 65.6189 62.4131 64.7339 62.4131C63.849 62.413 63.1237 61.6819 63.1235 60.79C63.1235 59.898 63.8409 59.1661 64.7339 59.166ZM15.48 58.5957H15.4644C15.4666 58.5957 15.4689 58.5947 15.4712 58.5947C15.4741 58.5947 15.477 58.5957 15.48 58.5957ZM14.5708 53.9102C15.1609 53.6771 15.7994 53.6852 16.3735 53.9424C16.9475 54.1915 17.3943 54.6583 17.6255 55.2529L17.6968 55.4619C18.1111 56.7155 17.4414 58.0577 16.2056 58.4756C15.9608 58.5551 15.7159 58.594 15.4712 58.5947C14.5336 58.5911 13.6532 58.0221 13.2876 57.0928L13.2476 57.0049C12.7691 55.7753 13.3669 54.3924 14.5708 53.9102ZM4.01318 54.1035C5.14536 53.7258 6.37364 54.3522 6.74853 55.4932L6.81982 55.7588C6.95538 56.3214 6.86794 56.9082 6.56494 57.3984C6.26193 57.8966 5.79103 58.2501 5.23291 58.3867C5.06562 58.4268 4.89042 58.4512 4.72314 58.4512C3.81412 58.4512 2.96853 57.864 2.66552 56.9639L2.62548 56.8516C2.45018 56.3052 2.49036 55.7186 2.75341 55.1963C3.01652 54.674 3.46308 54.2884 4.01318 54.1035ZM25.6626 58.4033H25.6548L25.6577 58.4023C25.6593 58.4023 25.661 58.4033 25.6626 58.4033ZM24.5063 53.6777C25.6944 53.0669 27.1619 53.5328 27.7759 54.7383L27.8638 54.9229C28.1428 55.5256 28.1663 56.1929 27.9351 56.8037C27.7118 57.4144 27.2574 57.9045 26.6675 58.1777C26.3415 58.33 25.9996 58.4019 25.6577 58.4023C24.7744 58.4005 23.9313 57.9107 23.5015 57.0684L23.4536 56.9805C23.1586 56.3938 23.1029 55.7343 23.3022 55.1074C23.5016 54.4808 23.9245 53.9751 24.5063 53.6777ZM37.727 53.4688C38.3569 53.509 38.9306 53.7903 39.3452 54.2725L39.4888 54.4492C39.8874 54.9555 40.0635 55.5741 39.9917 56.209C39.9199 56.8437 39.6089 57.406 39.1147 57.7998C38.6842 58.1454 38.1651 58.3145 37.6548 58.3145L37.6626 58.3066C37.009 58.3065 36.3634 58.0331 35.8931 57.5029L35.8208 57.4229C34.9598 56.4345 35.0476 54.9315 36.02 54.0635C36.4905 53.6456 37.1131 53.4205 37.727 53.4688ZM176.4 25.4609C167.414 25.4611 160.995 32.8945 160.995 41.7266C160.995 50.5587 167.493 57.993 176.4 57.9932C185.307 57.9932 191.885 50.4865 191.885 41.7266C191.885 32.9667 185.386 25.4609 176.4 25.4609ZM70.4116 54.5371C71.1849 54.5372 71.8147 55.1719 71.8149 55.9512C71.8149 56.7307 71.185 57.3662 70.4116 57.3662C69.6382 57.3662 69.0083 56.7307 69.0083 55.9512C69.0086 55.1718 69.6383 54.5371 70.4116 54.5371ZM252.359 26.1191C243.524 26.1194 237.17 33.4811 237.169 41.7988C237.169 50.1167 243.524 57.3338 252.359 57.334C261.194 57.334 267.765 50.0445 267.765 41.7266C267.765 33.4087 261.194 26.1191 252.359 26.1191ZM49.4243 51.1377C49.9027 50.8644 50.4537 50.7916 50.98 50.9443C51.0358 50.9604 51.1155 50.9847 51.1792 51.0088L51.2583 51.041C52.3267 51.4589 52.8532 52.6563 52.4468 53.709C52.1358 54.5205 51.3706 55.0272 50.5415 55.0273V55.0195C50.3661 55.0195 50.1819 54.9955 49.9985 54.9473L49.8872 54.915C49.3609 54.7704 48.922 54.4244 48.6509 53.9502C48.38 53.4682 48.3082 52.9139 48.4595 52.3838C48.603 51.8535 48.946 51.411 49.4243 51.1377ZM57.4858 54.6895H57.4702C57.4728 54.6895 57.4754 54.6885 57.478 54.6885C57.4806 54.6885 57.4832 54.6895 57.4858 54.6895ZM57.1353 51.29C57.5815 51.1697 58.0358 51.2342 58.4263 51.459C58.817 51.684 59.0967 52.0541 59.2163 52.4961C59.4474 53.3399 59.0004 54.2237 58.1792 54.5371L58.0757 54.5771C57.879 54.6485 57.6824 54.6874 57.478 54.6885C57.2414 54.6874 57.0045 54.6405 56.7837 54.5371C56.3693 54.3523 56.0506 54.0068 55.8911 53.5811C55.5642 52.6972 56.0026 51.7088 56.8794 51.3711L57.1353 51.29ZM32.9585 46.9424C33.5964 46.6932 34.2906 46.7092 34.9126 46.9824C35.5345 47.2557 36.0209 47.7624 36.2681 48.4053L36.3472 48.6221C36.5704 49.2891 36.5154 49.9808 36.2124 50.5996C35.9094 51.2103 35.3826 51.6678 34.7368 51.8848C34.4737 51.9732 34.2023 52.0137 33.9311 52.0137V52.0215C32.9107 52.0213 31.9539 51.3949 31.5552 50.3906L31.5151 50.2773C31.0052 48.9595 31.651 47.4648 32.9585 46.9424ZM13.1118 46.6211C13.7815 46.4846 14.4589 46.6214 15.0249 46.999C15.5909 47.3767 15.9821 47.963 16.1177 48.6299L16.1577 48.8633C16.2614 49.5464 16.0859 50.2299 15.6792 50.7764C15.2725 51.3228 14.6742 51.6846 14.0044 51.7891C13.8769 51.8051 13.7569 51.8125 13.6294 51.8125V51.8213C12.4335 51.8211 11.3736 50.9689 11.1343 49.7637L11.1099 49.6592C10.8308 48.2608 11.7244 46.9024 13.1118 46.6211ZM22.6401 46.5645C24.0276 46.2108 25.4319 47.0635 25.7827 48.4619L25.8296 48.6709C25.973 49.3619 25.8303 50.0531 25.4556 50.6396C25.0729 51.2182 24.4907 51.6202 23.813 51.7568C23.6376 51.797 23.462 51.8125 23.2866 51.8125V51.8047C22.1305 51.8047 21.0778 51.0172 20.7827 49.8359L20.7583 49.7236C20.5908 49.0566 20.6954 48.3567 21.0542 47.7539C21.413 47.1595 21.9706 46.7332 22.6401 46.5645ZM3.23974 51.6924H3.23193C3.23321 51.6924 3.23456 51.6914 3.23584 51.6914C3.23714 51.6914 3.23844 51.6924 3.23974 51.6924ZM2.79345 46.6777C3.43932 46.5652 4.0932 46.7014 4.62744 47.0791C5.16966 47.4568 5.5285 48.0277 5.64013 48.6787C5.6481 48.7428 5.66349 48.8148 5.66357 48.8789V48.9756C5.8071 50.3338 4.81877 51.5479 3.47119 51.6846C3.39274 51.6846 3.31429 51.6912 3.23584 51.6914C2.0734 51.6894 1.03884 50.8391 0.823727 49.6592L0.808102 49.5547C0.56889 48.2045 1.46185 46.9189 2.79345 46.6777ZM45.0395 46.2832C45.6773 46.3556 46.2433 46.6696 46.6499 47.1758C46.6977 47.24 46.7457 47.304 46.7935 47.3682L46.8413 47.4492C47.5667 48.5904 47.2474 50.0853 46.1392 50.8086C45.7407 51.0735 45.2865 51.1942 44.8403 51.1943V51.2021C44.1387 51.2021 43.4446 50.8886 42.9741 50.2939L42.9019 50.1973C42.5033 49.691 42.3203 49.0637 42.3921 48.4209C42.4639 47.7782 42.7826 47.1996 43.2769 46.7979C43.7712 46.396 44.4016 46.2109 45.0395 46.2832ZM74.1597 48.2207C74.8294 48.2207 75.3716 48.7673 75.3716 49.4424C75.3714 50.1173 74.8293 50.6631 74.1597 50.6631C73.49 50.6631 72.948 50.1173 72.9478 49.4424C72.9478 48.7673 73.4899 48.2207 74.1597 48.2207ZM63.2427 47.4004C64.0002 47.4004 64.6226 48.0275 64.6226 48.791C64.6225 49.5545 64.0002 50.1816 63.2427 50.1816C62.4774 50.1814 61.8638 49.5544 61.8638 48.791C61.8638 48.0277 62.4853 47.4006 63.2427 47.4004ZM12.936 39.2354C13.6776 39.2354 14.3637 39.4847 14.8979 39.999C15.432 40.5053 15.7345 41.1964 15.7505 41.9355V42.1445C15.7106 43.6394 14.4825 44.8291 13.0073 44.8291V44.8213H12.936C11.4769 44.7811 10.3052 43.5995 10.2651 42.1289C10.2492 41.3334 10.5119 40.6341 11.0142 40.0957C11.5165 39.5572 12.2024 39.2514 12.936 39.2354ZM22.4331 39.2354C23.1904 39.2354 23.8599 39.4927 24.394 40.0068C24.9202 40.5211 25.2237 41.2041 25.2397 41.9434V42.1123C25.2238 42.8597 24.9203 43.5513 24.394 44.0576C23.8838 44.5557 23.2061 44.8213 22.4966 44.8213V44.8291H22.4331C20.9579 44.797 19.7855 43.6069 19.7456 42.1201C19.7139 40.5371 20.9182 39.2675 22.4331 39.2354ZM32.5679 39.2354C34.0589 39.1953 35.3425 40.4089 35.3823 41.9277V42.1123C35.3584 42.8678 35.0551 43.5511 34.5288 44.0654C34.0185 44.5555 33.3487 44.8291 32.6392 44.8291H32.5679C31.1088 44.7889 29.936 43.6075 29.896 42.1289C29.8561 40.5457 31.0608 39.2755 32.5679 39.2354ZM2.63427 39.2197C3.38374 39.1876 4.06979 39.452 4.604 39.9502C5.14622 40.4485 5.45703 41.1405 5.48095 41.8799V42.1445C5.41716 43.6394 4.20498 44.8125 2.73779 44.8125L2.7456 44.8047H2.63427C1.21493 44.7484 0.0582547 43.5829 0.00243763 42.1523C-0.0611513 40.5693 1.12733 39.284 2.63427 39.2197ZM65.4438 39.2031C66.8552 39.2755 67.9797 40.4091 68.0435 41.8477V41.9521C68.0753 42.6673 67.82 43.3747 67.3257 43.9131C66.8314 44.4593 66.1538 44.7725 65.4204 44.8047H65.3003L65.2925 44.8125C64.6068 44.8125 63.9532 44.5552 63.4429 44.0811C62.9008 43.5829 62.5891 42.9003 62.5571 42.1611V41.8633C62.597 41.0838 62.9161 40.4084 63.4663 39.9102C64.0085 39.412 64.7104 39.1711 65.4438 39.2031ZM42.5435 39.1953C43.2689 39.1633 43.9789 39.4208 44.521 39.9189C45.0628 40.4171 45.3738 41.0999 45.4058 41.8389V42.1367C45.3659 42.9162 45.0468 43.5916 44.4966 44.0898C43.9863 44.5478 43.3403 44.8047 42.6626 44.8047L42.6704 44.7969H42.519C41.1077 44.7245 39.9832 43.5909 39.9194 42.1523V42.0479C39.8876 41.3327 40.1429 40.6253 40.6372 40.0869C41.1316 39.5405 41.8099 39.2275 42.5435 39.1953ZM105.321 39.2031C106.74 39.2594 107.897 40.4249 107.953 41.8555C108.016 43.4386 106.828 44.7248 105.321 44.7891H105.209C104.516 44.7891 103.862 44.5318 103.343 44.0576C102.801 43.5594 102.49 42.8681 102.466 42.1289V41.8633C102.53 40.3284 103.822 39.131 105.321 39.2031ZM95.0269 39.1787C96.486 39.2189 97.6587 40.4005 97.6987 41.8711C97.7147 42.6667 97.451 43.3658 96.9487 43.9043C96.4464 44.4428 95.7604 44.7486 95.0269 44.7646H94.9556V44.7725C94.2459 44.7725 93.5842 44.5071 93.0659 44.0088C92.5317 43.5025 92.2283 42.8116 92.2124 42.0723V41.8633C92.2523 40.3685 93.4804 39.1787 94.9556 39.1787H95.0269ZM75.395 39.1631C76.8542 39.2033 78.027 40.3846 78.0669 41.8633C78.1068 43.4465 76.9021 44.7167 75.395 44.7568H75.3237V44.7646C73.8406 44.7646 72.6125 43.5672 72.5806 42.0645V41.8799C72.6045 41.1244 72.9078 40.4411 73.4341 39.9268C73.9683 39.4206 74.6376 39.1792 75.395 39.1631ZM85.522 39.1709C86.9971 39.203 88.1696 40.3931 88.2095 41.8799C88.2411 43.4629 87.0369 44.7325 85.522 44.7646H85.4585L85.4663 44.7568C84.7568 44.7568 84.0791 44.4835 83.5688 43.9854C83.0426 43.471 82.7401 42.7872 82.7241 42.0479V41.8799C82.7401 41.1325 83.0426 40.4409 83.5688 39.9346C84.095 39.4284 84.7567 39.155 85.522 39.1709ZM61.8237 33.1914C62.8603 32.5164 64.2243 32.7417 64.9897 33.7061L65.061 33.8027C65.4597 34.309 65.6435 34.9362 65.5718 35.5791C65.4999 36.2218 65.1811 36.8004 64.687 37.2021C64.2565 37.5476 63.7379 37.7323 63.1958 37.7324C63.1081 37.7324 63.012 37.7329 62.9243 37.7168C62.2864 37.6445 61.7206 37.3305 61.314 36.8242C61.2662 36.7601 61.2182 36.696 61.1704 36.6318L61.1226 36.5508C60.397 35.4096 60.7154 33.9147 61.8237 33.1914ZM84.6929 37.5234H84.6851C84.6864 37.5234 84.6877 37.5225 84.689 37.5225C84.6902 37.5225 84.6916 37.5234 84.6929 37.5234ZM84.1509 32.2598C85.5062 31.9787 86.8373 32.8221 87.1724 34.1719L87.1968 34.2852C87.3641 34.9521 87.2606 35.6513 86.9019 36.2539C86.5431 36.8486 85.9847 37.2746 85.3149 37.4434C85.109 37.4992 84.895 37.5221 84.689 37.5225C83.5343 37.5207 82.4759 36.7347 82.1811 35.5547L82.1333 35.3457C81.9898 34.6546 82.1335 33.9636 82.5083 33.377C82.891 32.7983 83.4731 32.3964 84.1509 32.2598ZM94.3491 37.4268H94.3413L94.3442 37.4258C94.3459 37.4258 94.3475 37.4268 94.3491 37.4268ZM93.9585 32.2031C95.298 32.0022 96.5574 32.9024 96.8286 34.2363L96.853 34.3408C97.1321 35.739 96.2392 37.0974 94.852 37.3789C94.6856 37.4109 94.5108 37.4256 94.3442 37.4258C93.8516 37.4248 93.3671 37.2815 92.938 36.9932C92.3718 36.6154 91.9808 36.0284 91.8452 35.3613L91.8052 35.1289C91.7015 34.4458 91.8771 33.7623 92.2837 33.2158C92.6904 32.6693 93.2887 32.3076 93.9585 32.2031ZM104.492 32.3154C105.743 32.1869 106.916 33.0792 107.147 34.3408L107.164 34.4453C107.403 35.7953 106.51 37.081 105.178 37.3223C105.035 37.3464 104.883 37.3633 104.74 37.3633H104.731C104.237 37.3632 103.751 37.21 103.336 36.9209C102.794 36.5432 102.435 35.9723 102.324 35.3213C102.316 35.2572 102.299 35.1852 102.299 35.1211V35.0244C102.156 33.6664 103.144 32.4523 104.492 32.3154ZM73.2261 32.1152C74.5099 31.6813 75.9054 32.3403 76.4077 33.6182L76.4478 33.7305C76.9579 35.0484 76.312 36.5431 75.0044 37.0654C74.7015 37.1859 74.3827 37.2422 74.0718 37.2422V37.2344C73.7211 37.2344 73.3781 37.1621 73.0513 37.0176C72.4293 36.7443 71.942 36.2377 71.6948 35.5947L71.6157 35.3779C71.3925 34.7109 71.4485 34.0192 71.7515 33.4004C72.0545 32.7899 72.5805 32.3322 73.2261 32.1152ZM44.7202 33.8271C45.4776 33.8271 46.1 34.4534 46.1001 35.2168C46.1001 35.9803 45.4777 36.6074 44.7202 36.6074C43.9548 36.6074 43.3403 35.9803 43.3403 35.2168C43.3405 34.4535 43.9628 33.8272 44.7202 33.8271ZM33.8032 33.3369C34.4729 33.3369 35.0149 33.8827 35.0151 34.5576C35.0151 35.2327 34.473 35.7793 33.8032 35.7793C33.1335 35.7792 32.5913 35.2326 32.5913 34.5576C32.5915 33.8828 33.1337 33.3371 33.8032 33.3369ZM55.5239 30.3066C55.9066 29.3182 56.9596 28.7794 57.9722 29.0605L58.0835 29.0928C58.6098 29.2374 59.0487 29.5835 59.3198 30.0576C59.5909 30.5398 59.6627 31.0946 59.5112 31.625C59.3677 32.1553 59.0247 32.5969 58.5464 32.8701C58.2354 33.0469 57.8845 33.1436 57.5337 33.1436C57.3504 33.1435 57.1671 33.1195 56.9917 33.0713C56.9359 33.0552 56.8562 33.0309 56.7925 33.0068L56.7124 32.9746C55.644 32.5567 55.1174 31.3594 55.5239 30.3066ZM49.8716 29.4229C50.2941 29.2622 50.7568 29.2781 51.1714 29.4629C51.5858 29.6477 51.9045 29.9932 52.064 30.4189C52.3908 31.3028 51.9525 32.2912 51.0757 32.6289L50.8198 32.71C50.6685 32.7501 50.5171 32.7734 50.3657 32.7734V32.7656C50.0707 32.7656 49.7832 32.6857 49.52 32.541C49.1294 32.316 48.8505 31.9458 48.731 31.5039C48.4998 30.6601 48.9468 29.7763 49.7681 29.4629L49.8716 29.4229ZM82.3481 30.5879H82.3403C82.3416 30.5879 82.343 30.5869 82.3442 30.5869C82.3455 30.5869 82.3468 30.5879 82.3481 30.5879ZM81.2876 25.8145C82.4676 25.268 83.8635 25.7577 84.4536 26.9229L84.5015 27.0117C84.7964 27.5983 84.8521 28.2571 84.6528 28.8838C84.4535 29.5106 84.0308 30.0171 83.4487 30.3145C83.099 30.4987 82.7178 30.5863 82.3442 30.5869C81.4607 30.5853 80.6091 30.0964 80.1792 29.2539L80.0923 29.0693C79.8132 28.4666 79.7888 27.7992 80.02 27.1885C80.2432 26.5778 80.6977 26.0877 81.2876 25.8145ZM68.8413 26.2002C69.8221 25.4126 71.2415 25.5409 72.0708 26.4893L72.1421 26.5693C73.0032 27.5578 72.9156 29.0607 71.9429 29.9287C71.5044 30.3144 70.9622 30.5234 70.3882 30.5234L70.3804 30.5312H70.229C69.5991 30.4911 69.0245 30.2097 68.6099 29.7275L68.4663 29.5508C68.0678 29.0445 67.8926 28.4258 67.9644 27.791C68.0362 27.1562 68.347 26.594 68.8413 26.2002ZM91.7417 25.5244C92.9218 25.1226 94.2138 25.7339 94.6763 26.9072L94.7163 26.9951C95.1947 28.2247 94.5961 29.6076 93.3921 30.0898C93.1131 30.2023 92.8179 30.2588 92.5229 30.2588H92.5151C92.1963 30.2588 91.8776 30.1941 91.5747 30.0576C91.0006 29.8085 90.554 29.3418 90.3228 28.7471L90.2505 28.5391C89.8358 27.2853 90.5057 25.9423 91.7417 25.5244ZM102.738 25.6211C103.814 25.356 104.946 25.983 105.305 27.0518L105.345 27.1641C105.521 27.7106 105.48 28.2979 105.217 28.8203C104.954 29.3425 104.508 29.7283 103.958 29.9131C103.734 29.9854 103.511 30.0254 103.288 30.0254L103.28 30.0176C102.371 30.0176 101.517 29.4308 101.222 28.5146L101.151 28.249C101.015 27.6865 101.103 27.0995 101.406 26.6094C101.709 26.1112 102.18 25.7577 102.738 25.6211ZM37.5513 26.6338C38.3247 26.6338 38.9546 27.2693 38.9546 28.0488C38.9543 28.8282 38.3246 29.4629 37.5513 29.4629C36.7781 29.4628 36.1482 28.8281 36.1479 28.0488C36.1479 27.2693 36.7779 26.6339 37.5513 26.6338ZM64.6548 21.1211C65.8428 21.1212 66.8071 22.0936 66.8071 23.291C66.8069 24.4882 65.8427 25.4608 64.6548 25.4609C63.4668 25.4609 62.5017 24.4883 62.5015 23.291C62.5015 22.0936 63.4667 21.1211 64.6548 21.1211ZM43.229 21.5869C44.1139 21.587 44.8392 22.3181 44.8394 23.21C44.8394 24.102 44.122 24.8339 43.229 24.834C42.3439 24.834 41.6177 24.102 41.6177 23.21C41.6178 22.318 42.344 21.5869 43.229 21.5869ZM77.1099 20.1885C78.0667 19.4412 79.4378 19.5942 80.2192 20.5264L80.2915 20.6143C80.6742 21.0723 80.8649 21.6676 80.8091 22.2783C80.7532 22.8889 80.4745 23.4432 80.0122 23.8369C79.5897 24.1985 79.0714 24.3759 78.5532 24.376V24.3672C77.9074 24.3672 77.2615 24.0941 76.8149 23.5557L76.6948 23.4033C76.32 22.9131 76.161 22.31 76.2407 21.6992C76.3205 21.0965 76.6315 20.5581 77.1099 20.1885ZM88.4165 19.3369C89.4211 18.7824 90.6814 19.1194 91.2954 20.0996L91.3511 20.1885C91.6541 20.6868 91.7493 21.2734 91.6138 21.8359C91.4782 22.4065 91.1355 22.8811 90.6411 23.1865C90.2984 23.4033 89.9078 23.5078 89.5093 23.5078L89.5015 23.5234C89.334 23.5234 89.166 23.4999 88.9985 23.4678C88.4326 23.3312 87.9626 22.9853 87.6597 22.4873L87.5552 22.2939C87.2842 21.7877 87.2209 21.2011 87.3804 20.6387C87.5398 20.0843 87.9143 19.6182 88.4165 19.3369ZM100.912 19.0791C101.972 19.0791 102.833 19.9477 102.833 21.0166C102.833 22.0853 101.972 22.9531 100.912 22.9531C99.8512 22.9531 98.9899 22.0853 98.9897 21.0166C98.9897 19.9477 99.8511 19.0791 100.912 19.0791ZM57.8931 18.7256L57.9966 18.7422C58.5228 18.8226 58.9774 19.0956 59.2964 19.5215C59.6073 19.9473 59.7353 20.4697 59.6636 21C59.52 21.9885 58.6741 22.6963 57.7173 22.6963V22.7041C57.6217 22.7041 57.526 22.7038 57.4224 22.6797L57.2231 22.6396C56.697 22.5352 56.2584 22.2299 55.9634 21.7881C55.6683 21.3461 55.5726 20.8154 55.6763 20.293C55.8836 19.2643 56.8565 18.5729 57.8931 18.7256ZM49.9263 18.9268C50.3887 18.8303 50.8596 18.9272 51.2583 19.1924C51.6568 19.4576 51.9204 19.859 52.0161 20.333C52.2075 21.3054 51.5853 22.2455 50.6206 22.4385L50.4292 22.4707C50.3415 22.4868 50.2532 22.4873 50.1655 22.4873L50.1743 22.4951C49.3052 22.4951 48.5472 21.8598 48.4116 20.9678C48.2762 20.0276 48.8901 19.1441 49.8149 18.9512L49.9263 18.9268ZM73.4731 14.8281C74.6612 14.8281 75.6265 15.8006 75.6265 16.998C75.6264 18.1955 74.6612 19.168 73.4731 19.168C72.2853 19.1677 71.3209 18.1953 71.3208 16.998C71.3208 15.8007 72.2852 14.8284 73.4731 14.8281ZM33.9077 16.1465C34.5773 16.1465 35.1194 16.6923 35.1196 17.3672C35.1196 18.0422 34.5775 18.5888 33.9077 18.5889C33.2379 18.5889 32.6958 18.0423 32.6958 17.3672C32.696 16.6923 33.238 16.1465 33.9077 16.1465ZM84.1108 13.791C84.9242 13.1322 86.1125 13.2371 86.8061 14.0166L86.8774 14.0967C87.2283 14.4904 87.4044 15.0048 87.3726 15.5352C87.3407 16.0655 87.109 16.5478 86.7104 16.9014C86.3357 17.2388 85.8732 17.3994 85.4028 17.3994V17.4082C84.8607 17.4082 84.3179 17.1831 83.9272 16.7412L83.7915 16.5723C83.1217 15.7284 83.2576 14.4741 84.1108 13.791ZM97.4907 12.9795C98.4077 12.9795 99.1499 13.7272 99.1499 14.6514C99.1498 15.5755 98.4077 16.3232 97.4907 16.3232C96.5739 16.3231 95.8326 15.5754 95.8325 14.6514C95.8325 13.7272 96.5738 12.9796 97.4907 12.9795ZM67.477 15.2061H67.4692C67.4704 15.2061 67.4719 15.2051 67.4731 15.2051C67.4744 15.2051 67.4757 15.2061 67.477 15.2061ZM65.6353 12.3203C66.0978 11.3801 67.2146 10.9786 68.1714 11.3965L68.2671 11.4365C69.2557 11.8866 69.6937 13.0516 69.2554 14.04C68.929 14.7702 68.2213 15.2037 67.4731 15.2051C67.2114 15.2045 66.9418 15.149 66.6802 15.0371L66.5044 14.9482C66.0501 14.7232 65.6991 14.3133 65.5317 13.8232C65.3644 13.325 65.404 12.7944 65.6353 12.3203ZM39.8804 12.1035C40.6297 12.1037 41.2358 12.7145 41.2358 13.4697C41.2358 14.225 40.6297 14.8357 39.8804 14.8359C39.1308 14.8359 38.5239 14.2252 38.5239 13.4697C38.524 12.7143 39.1309 12.1035 39.8804 12.1035ZM58.9136 10.4717C59.137 9.53167 60.0459 8.93748 60.9946 9.11426L61.106 9.1377C61.5764 9.2261 61.9834 9.49955 62.2466 9.90137C62.5097 10.3032 62.6128 10.7856 62.5171 11.2598C62.4294 11.7338 62.1589 12.144 61.7603 12.4092C61.4572 12.6101 61.114 12.7148 60.7632 12.7148C60.6437 12.7148 60.5321 12.7067 60.4126 12.6826L60.2368 12.6416C59.2801 12.4084 58.6823 11.436 58.9136 10.4717ZM46.562 9.49121C47.3992 9.49121 48.0776 10.1747 48.0776 11.0186C48.0776 11.8624 47.3993 12.5459 46.562 12.5459C45.7249 12.5458 45.0474 11.8623 45.0474 11.0186C45.0474 10.1748 45.7249 9.49133 46.562 9.49121ZM80.3149 8.42285C81.3355 8.42285 82.1654 9.2585 82.1655 10.2871C82.1655 11.3158 81.3356 12.1514 80.3149 12.1514C79.2944 12.1513 78.4653 11.3157 78.4653 10.2871C78.4654 9.25856 79.2944 8.42294 80.3149 8.42285ZM53.6343 8.4873C54.5432 8.4873 55.2767 9.23434 55.2769 10.1504C55.2769 11.0666 54.5353 11.8145 53.6343 11.8145C52.7254 11.8143 51.9839 11.0665 51.9839 10.1504C51.984 9.23446 52.7255 8.4875 53.6343 8.4873ZM74.4868 4.48438C75.3796 4.48462 76.1126 5.22419 76.1128 6.12402C76.1128 7.02398 75.3797 7.76343 74.4868 7.76367C73.5937 7.76367 72.8599 7.02413 72.8599 6.12402C72.86 5.22404 73.5938 4.48438 74.4868 4.48438ZM67.9878 1.67969C68.7611 1.67982 69.3833 2.30744 69.3833 3.08691C69.383 3.86617 68.761 4.49303 67.9878 4.49316C67.2145 4.49316 66.5925 3.86625 66.5923 3.08691C66.5923 2.30736 67.2143 1.67969 67.9878 1.67969ZM61.0747 0C61.7442 0.000209792 62.2865 0.546846 62.2866 1.22168C62.2866 1.89663 61.7443 2.44315 61.0747 2.44336C60.4049 2.44336 59.8618 1.89676 59.8618 1.22168C59.8619 0.546717 60.405 0 61.0747 0Z" fill="white"/>
</svg>
