<svg preserveAspectRatio="none" width="100%" height="100%" overflow="visible" style="display: block;" viewBox="0 0 36 30" fill="none" xmlns="http://www.w3.org/2000/svg">
<g id="Layer_1" clip-path="url(#clip0_0_219)">
<path id="Vector" d="M7.6519 14.5246C7.89262 14.9284 8.22013 15.2739 8.61029 15.5345L8.61834 15.5398C9.09351 15.8496 9.65906 16.0313 10.2667 16.0313C10.3105 16.0313 10.3553 16.0304 10.3991 16.0278C11.089 15.9946 11.736 15.6974 12.2371 15.2265L16.86 17.5389C16.7946 17.7637 16.7579 17.9973 16.7526 18.2337C16.7526 18.2713 16.7517 18.3098 16.7526 18.3474C16.7633 19.8997 18.0036 21.3277 19.5508 21.4467C21.3298 21.5837 22.8206 20.1737 22.8206 18.4235C22.8206 17.9042 22.689 17.4163 22.4591 16.9884L27.7933 11.8004C28.3723 12.1683 29.081 12.35 29.8371 12.2453C31.2072 12.0564 32.2881 10.9364 32.4295 9.56043C32.6264 7.641 31.021 6.03223 29.1025 6.22471C27.7387 6.36168 26.6237 7.42346 26.4179 8.77887C26.3051 9.52104 26.4698 10.2193 26.8161 10.7959L21.5257 15.9409C21.0336 15.5953 20.4349 15.3903 19.7897 15.3903C19.6886 15.3903 19.5857 15.3939 19.481 15.402C18.7588 15.4548 18.0886 15.7833 17.5893 16.3017L13.1051 14.0582C13.2421 13.6947 13.3136 13.299 13.2984 12.8845C13.2376 11.2471 11.8506 9.93554 10.213 9.96598C8.56734 9.99642 7.23848 11.3447 7.23848 12.9982C7.23848 13.5551 7.3915 14.0761 7.65459 14.5246H7.6519ZM29.4121 7.61056C30.3114 7.61056 31.0434 8.34199 31.0434 9.24172C31.0434 10.1415 30.3114 10.8738 29.4121 10.8738C28.9602 10.8738 28.5512 10.6885 28.2559 10.3903C28.2524 10.3867 28.2506 10.3832 28.247 10.3796C28.247 10.3796 28.247 10.3796 28.2461 10.3787C27.9597 10.0842 27.7817 9.68398 27.7817 9.24172C27.7817 8.34199 28.5136 7.61056 29.4121 7.61056ZM19.7879 16.7914C20.6873 16.7914 21.4192 17.5237 21.4192 18.4235C21.4192 19.3232 20.6873 20.0555 19.7879 20.0555C18.8886 20.0555 18.1566 19.3232 18.1566 18.4235C18.1566 17.5237 18.8886 16.7914 19.7879 16.7914ZM10.2667 11.3662C11.166 11.3662 11.898 12.0985 11.898 12.9982C11.898 13.8979 11.166 14.6303 10.2667 14.6303C9.36734 14.6303 8.63624 13.8979 8.63624 12.9982C8.63624 12.0985 9.36734 11.3662 10.2667 11.3662Z" fill="var(--fill-0, #333333)"/>
<path id="Vector_2" d="M35.7905 25.8863L32.7918 22.9445C32.5153 22.6732 32.0724 22.6777 31.8021 22.9543C31.531 23.231 31.5355 23.6741 31.812 23.9445L33.7171 25.8138H4.34083V2.42793L6.04911 4.1889C6.31846 4.46643 6.76231 4.47269 7.03882 4.20322C7.31622 3.93375 7.32338 3.4906 7.05403 3.21307L4.14307 0.212175C4.01152 0.0769919 3.83076 0 3.64195 0H3.64016C3.45224 0 3.27237 0.0760967 3.13994 0.210385L0.200338 3.21038C-0.0708027 3.48702 -0.0663284 3.93017 0.210182 4.20143C0.3462 4.33483 0.523381 4.40197 0.700562 4.40197C0.877743 4.40197 1.06298 4.33214 1.20079 4.19158L2.94128 2.4154V26.5139C2.94128 26.9006 3.25448 27.2149 3.64195 27.2149H33.4433L31.8147 28.7959C31.5373 29.0654 31.531 29.5094 31.7994 29.7869C31.9373 29.9284 32.1198 30 32.3024 30C32.4849 30 32.654 29.9346 32.79 29.8021L35.7887 26.8899C35.9238 26.7583 36.0008 26.5774 36.0017 26.3885C36.0017 26.1996 35.9265 26.0188 35.7914 25.8863H35.7905Z" fill="var(--fill-0, #333333)"/>
</g>
<defs>
<clipPath id="clip0_0_219">
<rect width="36" height="30" fill="white"/>
</clipPath>
</defs>
</svg>
